<svg width="40" height="42" viewBox="0 0 40 42" fill="none" xmlns="http://www.w3.org/2000/svg">
<path d="M11.8812 33.6634C14.0594 33.6634 15.8416 35.4455 15.8416 37.6238C15.8416 39.802 14.0594 41.5842 11.8812 41.5842C9.70297 41.5842 7.92079 39.802 7.92079 37.6238C7.92079 35.4455 9.70297 33.6634 11.8812 33.6634ZM31.6832 33.6634C33.8614 33.6634 35.6436 35.4455 35.6436 37.6238C35.6436 39.802 33.8614 41.5842 31.6832 41.5842C29.5049 41.5842 27.7228 39.802 27.7228 37.6238C27.7228 35.4455 29.5049 33.6634 31.6832 33.6634ZM12.2772 27.3267C12.2772 27.5248 12.4752 27.7228 12.6733 27.7228H35.6436V31.6832H11.8812C9.70297 31.6832 7.92079 29.901 7.92079 27.7228C7.92079 26.9307 8.11881 26.3366 8.31683 25.7426L10.8911 20.9901L3.9604 5.94059H0V1.9802H6.53465L15.0495 19.802H28.9109L36.6337 5.94059L40 7.92079L32.2772 21.7822C31.6832 22.9703 30.297 23.7624 28.9109 23.7624H14.0594L12.2772 26.9307V27.3267ZM16.6337 0C18.2178 0 19.4059 1.18812 19.4059 2.77228C19.4059 4.35644 18.2178 5.54455 16.6337 5.54455C15.0495 5.54455 13.8614 4.35644 13.8614 2.77228C13.8614 1.18812 15.2475 0 16.6337 0ZM26.9307 15.8416C25.3465 15.8416 24.1584 14.6535 24.1584 13.0693C24.1584 11.4851 25.3465 10.297 26.9307 10.297C28.5149 10.297 29.703 11.4851 29.703 13.0693C29.703 14.6535 28.3168 15.8416 26.9307 15.8416ZM16.2376 15.8416L13.8614 13.4653L27.3267 0L29.703 2.37624L16.2376 15.8416Z" fill="#1D345C"/>
</svg>
