<svg width="27" height="27" viewBox="0 0 27 27" fill="none" xmlns="http://www.w3.org/2000/svg">
<path fill-rule="evenodd" clip-rule="evenodd" d="M13.5 27C15.2728 27 17.0283 26.6508 18.6662 25.9724C20.3041 25.2939 21.7923 24.2995 23.0459 23.0459C24.2995 21.7923 25.2939 20.3041 25.9724 18.6662C26.6508 17.0283 27 15.2728 27 13.5C27 11.7272 26.6508 9.97167 25.9724 8.33377C25.2939 6.69588 24.2995 5.20765 23.0459 3.95406C21.7923 2.70047 20.3041 1.70606 18.6662 1.02763C17.0283 0.349188 15.2728 -2.64175e-08 13.5 0C9.91958 5.33525e-08 6.4858 1.42232 3.95406 3.95406C1.42232 6.4858 0 9.91958 0 13.5C0 17.0804 1.42232 20.5142 3.95406 23.0459C6.4858 25.5777 9.91958 27 13.5 27ZM11.6745 7.485L20.1405 12.189C20.3742 12.3189 20.569 12.509 20.7045 12.7395C20.8401 12.97 20.9116 13.2326 20.9116 13.5C20.9116 13.7674 20.8401 14.03 20.7045 14.2605C20.569 14.491 20.3742 14.6811 20.1405 14.811L11.6745 19.515C11.4004 19.6674 11.0912 19.7455 10.7776 19.7416C10.464 19.7377 10.1568 19.6519 9.8866 19.4927C9.61635 19.3336 9.39238 19.1066 9.23687 18.8342C9.08135 18.5619 8.9997 18.2536 9 17.94V9.06C8.9997 8.74637 9.08135 8.43811 9.23687 8.16576C9.39238 7.8934 9.61635 7.66641 9.8866 7.50726C10.1568 7.34811 10.464 7.26234 10.7776 7.25843C11.0912 7.25453 11.4004 7.33263 11.6745 7.485Z" fill="white"/>
</svg>
