<svg width="29" height="28" viewBox="0 0 29 28" fill="none" xmlns="http://www.w3.org/2000/svg">
<path fill-rule="evenodd" clip-rule="evenodd" d="M14.5 1.95349C11.3051 1.95349 8.24099 3.22267 5.98183 5.48183C3.72267 7.74099 2.45349 10.8051 2.45349 14C2.45349 17.1949 3.72267 20.259 5.98183 22.5182C8.24099 24.7773 11.3051 26.0465 14.5 26.0465C17.6949 26.0465 20.759 24.7773 23.0182 22.5182C25.2773 20.259 26.5465 17.1949 26.5465 14C26.5465 10.8051 25.2773 7.74099 23.0182 5.48183C20.759 3.22267 17.6949 1.95349 14.5 1.95349ZM0.5 14C0.5 6.26809 6.76809 0 14.5 0C22.2319 0 28.5 6.26809 28.5 14C28.5 21.7319 22.2319 28 14.5 28C6.76809 28 0.5 21.7319 0.5 14ZM14.5 5.2093C14.759 5.2093 15.0075 5.31221 15.1907 5.49538C15.3738 5.67856 15.4767 5.927 15.4767 6.18605V6.59888C17.5995 6.97916 19.3837 8.57451 19.3837 10.7442C19.3837 11.0032 19.2808 11.2517 19.0976 11.4348C18.9145 11.618 18.666 11.7209 18.407 11.7209C18.1479 11.7209 17.8995 11.618 17.7163 11.4348C17.5331 11.2517 17.4302 11.0032 17.4302 10.7442C17.4302 9.86121 16.6957 8.92484 15.4767 8.59144V13.1105C17.5995 13.4908 19.3837 15.0861 19.3837 17.2558C19.3837 19.4255 17.5995 21.0208 15.4767 21.4011V21.814C15.4767 22.073 15.3738 22.3214 15.1907 22.5046C15.0075 22.6878 14.759 22.7907 14.5 22.7907C14.241 22.7907 13.9925 22.6878 13.8093 22.5046C13.6262 22.3214 13.5233 22.073 13.5233 21.814V21.4011C11.4005 21.0208 9.61628 19.4255 9.61628 17.2558C9.61628 16.9968 9.71919 16.7483 9.90236 16.5652C10.0855 16.382 10.334 16.2791 10.593 16.2791C10.8521 16.2791 11.1005 16.382 11.2837 16.5652C11.4669 16.7483 11.5698 16.9968 11.5698 17.2558C11.5698 18.1388 12.3043 19.0752 13.5233 19.4073V14.8895C11.4005 14.5092 9.61628 12.9139 9.61628 10.7442C9.61628 8.57451 11.4005 6.97916 13.5233 6.59888V6.18605C13.5233 5.927 13.6262 5.67856 13.8093 5.49538C13.9925 5.31221 14.241 5.2093 14.5 5.2093ZM13.5233 8.59144C12.3043 8.92484 11.5698 9.86121 11.5698 10.7442C11.5698 11.6272 12.3043 12.5635 13.5233 12.8956V8.59144ZM15.4767 15.1031V19.4086C16.6957 19.0752 17.4302 18.1401 17.4302 17.2558C17.4302 16.3728 16.6957 15.4352 15.4767 15.1031Z" fill="white"/>
</svg>
