<svg width="27" height="27" viewBox="0 0 27 27" fill="none" xmlns="http://www.w3.org/2000/svg">
<path d="M16.5 27C16.1022 27 15.7206 26.842 15.4393 26.5607C15.158 26.2794 15 25.8978 15 25.5V13.5C15 13.1022 15.158 12.7206 15.4393 12.4393C15.7206 12.158 16.1022 12 16.5 12H25.5C25.8978 12 26.2794 12.158 26.5607 12.4393C26.842 12.7206 27 13.1022 27 13.5V25.5C27 25.8978 26.842 26.2794 26.5607 26.5607C26.2794 26.842 25.8978 27 25.5 27H16.5ZM1.5 15C1.10218 15 0.720644 14.842 0.43934 14.5607C0.158035 14.2794 0 13.8978 0 13.5V1.5C0 1.10218 0.158035 0.720644 0.43934 0.43934C0.720644 0.158035 1.10218 0 1.5 0H10.5C10.8978 0 11.2794 0.158035 11.5607 0.43934C11.842 0.720644 12 1.10218 12 1.5V13.5C12 13.8978 11.842 14.2794 11.5607 14.5607C11.2794 14.842 10.8978 15 10.5 15H1.5ZM9 12V3H3V12H9ZM1.5 27C1.10218 27 0.720644 26.842 0.43934 26.5607C0.158035 26.2794 0 25.8978 0 25.5V19.5C0 19.1022 0.158035 18.7206 0.43934 18.4393C0.720644 18.158 1.10218 18 1.5 18H10.5C10.8978 18 11.2794 18.158 11.5607 18.4393C11.842 18.7206 12 19.1022 12 19.5V25.5C12 25.8978 11.842 26.2794 11.5607 26.5607C11.2794 26.842 10.8978 27 10.5 27H1.5ZM3 24H9V21H3V24ZM18 24H24V15H18V24ZM15 1.5C15 1.10218 15.158 0.720644 15.4393 0.43934C15.7206 0.158035 16.1022 0 16.5 0H25.5C25.8978 0 26.2794 0.158035 26.5607 0.43934C26.842 0.720644 27 1.10218 27 1.5V7.5C27 7.89782 26.842 8.27936 26.5607 8.56066C26.2794 8.84196 25.8978 9 25.5 9H16.5C16.1022 9 15.7206 8.84196 15.4393 8.56066C15.158 8.27936 15 7.89782 15 7.5V1.5ZM18 3V6H24V3H18Z" fill="white"/>
</svg>
