<svg width="53" height="48" viewBox="0 0 53 48" fill="none" xmlns="http://www.w3.org/2000/svg">
<path d="M15.7849 35.2707L7.47 26.9558C7.28056 26.7613 6.93756 26.7613 6.74812 26.9558L0.952284 32.7516C0.337925 33.366 0 34.1852 0 35.0556C0 35.9209 0.337925 36.74 0.952284 37.3545L5.39123 41.7936C6.0057 42.4079 6.81977 42.7458 7.69014 42.7458C8.56062 42.7458 9.37468 42.4079 9.98904 41.7936L11.5046 40.273L18.4268 47.1952C18.8005 47.5689 19.2921 47.7583 19.7836 47.7583C20.2802 47.7583 20.7717 47.5689 21.1454 47.1952L23.0705 45.2701C23.4341 44.9065 23.6338 44.4253 23.6338 43.9133C23.6338 43.4013 23.4341 42.9149 23.0705 42.5514L15.7849 35.2707ZM27.3969 15.3438C23.1627 11.1147 17.5153 7.77653 15.3189 9.86546C15.3086 9.87573 15.3035 9.88081 15.2933 9.886C15.2882 9.89107 15.283 9.89626 15.2779 9.90134C14.986 10.1932 14.7967 10.5618 14.6993 10.997L7.29591 25.7987C7.63902 25.8397 7.96149 25.9984 8.20205 26.2442L16.5066 34.5488L17.2491 35.2912L31.7847 28.026C32.1995 27.9235 32.563 27.7443 32.8394 27.4679C32.8445 27.4628 32.8497 27.4526 32.8548 27.4475C32.8649 27.4372 32.8752 27.427 32.8855 27.4116C33.7917 26.4388 33.6893 24.6366 32.5782 22.3122C31.5288 20.1105 29.6856 17.6375 27.3969 15.3438ZM32.1482 26.6999L31.3957 27.0737C30.0748 27.2938 27.5505 26.3569 24.3864 23.8941L26.9259 18.6053C27.018 18.4055 26.9771 18.1751 26.8236 18.0216L24.7244 15.9173C24.5708 15.7637 24.3352 15.7279 24.1407 15.82L18.8466 18.3596C16.384 15.1903 15.4521 12.6662 15.6672 11.3452L16.0461 10.5926C16.2918 10.3724 16.6502 10.265 17.1111 10.265C19.0925 10.265 22.8608 12.2617 26.6752 16.071C28.8819 18.2777 30.6535 20.6533 31.657 22.7577C32.5374 24.6007 32.7167 26.065 32.1482 26.6999ZM49.6279 0.332031H33.6638C32.2301 0.332031 31.068 1.49937 31.068 2.9279V6.09718L27.4635 11.3707C27.356 11.5295 27.3457 11.7292 27.4327 11.8981C27.5198 12.067 27.699 12.1745 27.8885 12.1745H49.6279C51.0563 12.1745 52.2237 11.0072 52.2237 9.57865V2.92779C52.2237 1.49937 51.0563 0.332031 49.6279 0.332031ZM38.6098 6.64761C38.6098 6.93056 38.3805 7.15964 38.0977 7.15964C37.815 7.15964 37.5857 6.93067 37.5857 6.64761V5.8596C37.5857 5.57666 37.815 5.34758 38.0977 5.34758C38.3805 5.34758 38.6098 5.57655 38.6098 5.8596V6.64761ZM42.1565 6.64761C42.1565 6.93056 41.9272 7.15964 41.6445 7.15964C41.3617 7.15964 41.1324 6.93067 41.1324 6.64761V5.8596C41.1324 5.57666 41.3617 5.34758 41.6445 5.34758C41.9272 5.34758 42.1565 5.57655 42.1565 5.8596V6.64761ZM45.7032 6.64761C45.7032 6.93056 45.4739 7.15964 45.1912 7.15964C44.9085 7.15964 44.6792 6.93067 44.6792 6.64761V5.8596C44.6792 5.57666 44.9085 5.34758 45.1912 5.34758C45.4739 5.34758 45.7032 5.57655 45.7032 5.8596V6.64761Z" fill="white"/>
</svg>
