<svg width="35" height="38" viewBox="0 0 35 38" fill="none" xmlns="http://www.w3.org/2000/svg">
<path fill-rule="evenodd" clip-rule="evenodd" d="M3.78655 13.6421C3.78655 10.024 5.22739 6.55408 7.79209 3.99568C10.3568 1.43729 13.8353 0 17.4623 0C21.0894 0 24.5678 1.43729 27.1325 3.99568C29.6972 6.55408 31.1381 10.024 31.1381 13.6421V20.9777L34.6977 28.0794C34.8616 28.4062 34.9389 28.7695 34.9225 29.1346C34.906 29.4996 34.7963 29.8545 34.6036 30.1653C34.411 30.4762 34.1419 30.7328 33.8219 30.9107C33.5019 31.0887 33.1416 31.182 32.7753 31.182H25.0309C24.5963 32.8546 23.6173 34.3359 22.2474 35.3934C20.8775 36.4508 19.1944 37.0246 17.4623 37.0246C15.7302 37.0246 14.0471 36.4508 12.6772 35.3934C11.3074 34.3359 10.3283 32.8546 9.89376 31.182H2.14937C1.78301 31.182 1.42272 31.0887 1.10272 30.9107C0.782713 30.7328 0.513624 30.4762 0.321005 30.1653C0.128386 29.8545 0.0186336 29.4996 0.0021711 29.1346C-0.0142914 28.7695 0.0630828 28.4062 0.226945 28.0794L3.78655 20.9777V13.6421ZM14.0785 31.182C14.4215 31.7745 14.9148 32.2665 15.5087 32.6085C16.1027 32.9506 16.7765 33.1307 17.4623 33.1307C18.1482 33.1307 18.8219 32.9506 19.4159 32.6085C20.0099 32.2665 20.5031 31.7745 20.8461 31.182H14.0785ZM17.4623 3.89775C14.8716 3.89775 12.3869 4.92439 10.555 6.75181C8.72308 8.57923 7.69391 11.0578 7.69391 13.6421V20.9777C7.69387 21.5825 7.55274 22.179 7.28169 22.72L4.99588 27.2842H29.9307L27.6449 22.72C27.3732 22.1791 27.2314 21.5826 27.2307 20.9777V13.6421C27.2307 11.0578 26.2016 8.57923 24.3696 6.75181C22.5377 4.92439 20.0531 3.89775 17.4623 3.89775Z" fill="white"/>
</svg>
