<svg width="21" height="21" viewBox="0 0 21 21" fill="none" xmlns="http://www.w3.org/2000/svg">
<path fill-rule="evenodd" clip-rule="evenodd" d="M2.21383 7.73768C2.21383 5.68552 3.05622 3.71741 4.55568 2.26631C6.05515 0.815217 8.08886 0 10.2094 0C12.33 0 14.3637 0.815217 15.8632 2.26631C17.3626 3.71741 18.205 5.68552 18.205 7.73768V11.8983L20.2862 15.9264C20.382 16.1117 20.4272 16.3178 20.4176 16.5248C20.408 16.7319 20.3438 16.9332 20.2312 17.1095C20.1186 17.2858 19.9612 17.4313 19.7741 17.5323C19.5871 17.6332 19.3764 17.6862 19.1622 17.6861H14.6344C14.3803 18.6348 13.8079 19.475 13.007 20.0748C12.2062 20.6746 11.2221 21 10.2094 21C9.19673 21 8.2127 20.6746 7.41181 20.0748C6.61092 19.475 6.03851 18.6348 5.78443 17.6861H1.25664C1.04244 17.6862 0.831799 17.6332 0.644708 17.5323C0.457617 17.4313 0.300293 17.2858 0.187677 17.1095C0.0750616 16.9332 0.0108943 16.7319 0.00126935 16.5248C-0.00835556 16.3178 0.0368817 16.1117 0.132684 15.9264L2.21383 11.8983V7.73768ZM8.23109 17.6861C8.4316 18.0222 8.71998 18.3012 9.06725 18.4953C9.41452 18.6893 9.80844 18.7914 10.2094 18.7914C10.6104 18.7914 11.0043 18.6893 11.3516 18.4953C11.6989 18.3012 11.9873 18.0222 12.1878 17.6861H8.23109ZM10.2094 2.21077C8.69474 2.21077 7.24209 2.79306 6.17104 3.82956C5.09999 4.86606 4.49828 6.27185 4.49828 7.73768V11.8983C4.49826 12.2414 4.41575 12.5797 4.25727 12.8866L2.92087 15.4754H17.4991L16.1627 12.8866C16.0039 12.5798 15.9209 12.2415 15.9206 11.8983V7.73768C15.9206 6.27185 15.3189 4.86606 14.2478 3.82956C13.1768 2.79306 11.7241 2.21077 10.2094 2.21077Z" fill="black"/>
</svg>
