<svg width="15" height="15" viewBox="0 0 15 15" fill="none" xmlns="http://www.w3.org/2000/svg">
<path d="M7.84797 11.9203L11.0267 8.74155L9.91415 7.62899L8.64266 8.90048V5.5628H7.05329V8.90048L5.78179 7.62899L4.66923 8.74155L7.84797 11.9203ZM2.28517 14.3043C1.84809 14.3043 1.47406 14.1489 1.16308 13.8379C0.852089 13.5269 0.696331 13.1526 0.695801 12.715V2.80127C0.695801 2.61584 0.725734 2.43704 0.7856 2.26486C0.845467 2.09268 0.934736 1.93374 1.05341 1.78805L2.04677 0.576151C2.19246 0.390725 2.37444 0.248211 2.59272 0.14861C2.81099 0.0490098 3.03959 -0.000525586 3.27853 4.20468e-06H12.4174C12.6558 4.20468e-06 12.8844 0.0498045 13.1032 0.149405C13.322 0.249006 13.504 0.391254 13.6492 0.576151L14.6425 1.78805C14.7617 1.93374 14.8513 2.09268 14.9111 2.26486C14.971 2.43704 15.0007 2.61584 15.0001 2.80127V12.715C15.0001 13.1521 14.8446 13.5263 14.5337 13.8379C14.2227 14.1494 13.8484 14.3049 13.4108 14.3043H2.28517ZM2.60305 2.38406H13.0929L12.4174 1.58938H3.27853L2.60305 2.38406Z" fill="#1D345C"/>
</svg>
