<svg width="24" height="23" viewBox="0 0 24 23" fill="none" xmlns="http://www.w3.org/2000/svg">
<path d="M4.12543 0L2.91857 1.20514L4.71429 3L5.91943 1.79486L4.12543 0ZM19.8754 0L18.0797 1.79486L19.2857 3L21.0806 1.206L19.8754 0ZM12 0.534857C11.7171 0.537143 11.4314 0.555429 11.1429 0.589714H11.1171C7.64057 0.988286 4.87371 3.79714 4.39286 7.25829C4.00886 10.044 5.15743 12.57 7.07143 14.1969C7.85424 14.8651 8.38378 15.782 8.57143 16.794V21.9369H10.5257C10.824 22.4486 11.3683 22.794 12 22.794C12.6317 22.794 13.176 22.4486 13.4743 21.9369H15.4286V18.5083H15.5091V17.49C15.5091 16.2334 16.1623 14.9666 17.2234 13.9817C18.6429 12.5606 19.7143 10.542 19.7143 8.22343C19.7143 3.98914 16.2291 0.495429 12 0.534857ZM12 2.24914C15.3129 2.20286 18 4.91486 18 8.22343C18 10.0183 17.1686 11.5989 16.0174 12.7491L16.0449 12.7766C14.9014 13.8318 14.1617 15.2529 13.9534 16.7949H10.2043C10.0157 15.3257 9.38571 13.9037 8.19514 12.8837C6.68057 11.598 5.778 9.66086 6.07971 7.47343C6.45429 4.77343 8.64514 2.60229 11.3297 2.30486C11.5514 2.27412 11.7746 2.2558 11.9983 2.25L12 2.24914ZM0 8.22343V9.93771H2.57143V8.22343H0ZM21.4286 8.22343V9.93771H24V8.22343H21.4286ZM4.71429 15.1611L2.91943 16.9551L4.12543 18.1611L5.91857 16.3663L4.71429 15.1611ZM19.2857 15.1611L18.0806 16.3663L19.8746 18.1611L21.0806 16.9551L19.2857 15.1611ZM10.2857 18.5091H13.7143V20.2234H10.2857V18.5091Z" fill="black"/>
</svg>
