<svg width="2" height="9" viewBox="0 0 2 9" fill="none" xmlns="http://www.w3.org/2000/svg">
<path d="M0.121252 0.807626C0.113214 0.506214 0.253873 0.355508 0.543229 0.355508H1.50775C1.7971 0.355508 1.93776 0.506214 1.92972 0.807626L1.76696 6.07631C1.75892 6.33753 1.62831 6.46814 1.37513 6.46814H0.67585C0.422664 6.46814 0.292052 6.33753 0.284014 6.07631L0.121252 0.807626ZM0.567342 9C0.286024 9 0.145365 8.84929 0.145365 8.54788V7.7401C0.145365 7.43869 0.286024 7.28798 0.567342 7.28798H1.48363C1.76495 7.28798 1.90561 7.43869 1.90561 7.7401V8.54788C1.90561 8.84929 1.76495 9 1.48363 9H0.567342Z" fill="white"/>
</svg>
