<svg width="23" height="26" viewBox="0 0 23 26" fill="none" xmlns="http://www.w3.org/2000/svg">
<path d="M22.08 3.68C22.08 3.192 21.8861 2.72399 21.5411 2.37892C21.196 2.03386 20.728 1.84 20.24 1.84H16.56V0H14.72V1.84H7.36V0H5.52V1.84H1.84C1.352 1.84 0.88399 2.03386 0.538923 2.37892C0.193857 2.72399 0 3.192 0 3.68V22.08C0 22.568 0.193857 23.036 0.538923 23.3811C0.88399 23.7261 1.352 23.92 1.84 23.92H5.52V22.08H1.84V3.68H5.52V5.52H7.36V3.68H14.72V5.52H16.56V3.68H20.24V9.2H22.08V3.68Z" fill="white"/>
<path d="M15.6403 11.9609L17.9854 16.5039L23.0003 17.2316L19.3203 20.7681L20.2403 25.7609L15.6403 23.4039L11.0403 25.7609L11.9603 20.7681L8.28027 17.2316L13.4323 16.5039L15.6403 11.9609Z" fill="white"/>
</svg>
