<svg width="35" height="35" viewBox="0 0 35 35" fill="none" xmlns="http://www.w3.org/2000/svg">
<path d="M9.34211 27.2895V24.0263M17.5 27.2895V22.3947M25.6579 27.2895V19.1316M2 17.5C2 10.1938 2 6.53905 4.26953 4.26953C6.53905 2 10.1922 2 17.5 2C24.8062 2 28.4609 2 30.7305 4.26953C33 6.53905 33 10.1922 33 17.5C33 24.8062 33 28.4609 30.7305 30.7305C28.4609 33 24.8078 33 17.5 33C10.1938 33 6.53905 33 4.26953 30.7305C2 28.4609 2 24.8078 2 17.5Z" stroke="#1D345C" stroke-width="2.44737" stroke-linecap="round" stroke-linejoin="round"/>
<path d="M7.69727 16.6613C11.2133 16.7788 19.1868 16.2485 23.7226 9.04999M20.7499 8.18035L23.8107 7.68762C24.1827 7.6403 24.7309 7.93562 24.8664 8.28641L25.674 10.9589" stroke="#1D345C" stroke-width="2.44737" stroke-linecap="round" stroke-linejoin="round"/>
</svg>
