<svg width="17" height="17" viewBox="0 0 17 17" fill="none" xmlns="http://www.w3.org/2000/svg">
<path d="M8.5 4.61064C7.98917 4.60904 7.48307 4.70849 7.01083 4.90327C6.53858 5.09806 6.10954 5.38432 5.74838 5.74559C5.38722 6.10686 5.10109 6.536 4.90645 7.0083C4.71182 7.48061 4.61252 7.98674 4.61429 8.49757C4.61284 9.0082 4.71237 9.51407 4.90715 9.98609C5.10193 10.4581 5.38812 10.887 5.74924 11.248C6.11037 11.609 6.53931 11.895 7.01139 12.0897C7.48347 12.2843 7.98937 12.3837 8.5 12.3821C9.01052 12.3835 9.5163 12.284 9.98824 12.0893C10.4602 11.8946 10.889 11.6085 11.25 11.2475C11.611 10.8865 11.897 10.4578 12.0917 9.98581C12.2865 9.51387 12.3859 9.0081 12.3845 8.49757C12.3863 7.98684 12.287 7.48081 12.0924 7.00859C11.8979 6.53637 11.6119 6.10728 11.2508 5.74603C10.8898 5.38477 10.4609 5.09848 9.9888 4.90362C9.5167 4.70877 9.01073 4.6092 8.5 4.61064ZM8.5 10.9856C7.8398 10.9856 7.20664 10.7234 6.73981 10.2565C6.27298 9.78972 6.01071 9.15656 6.01071 8.49636C6.01071 7.83616 6.27298 7.203 6.73981 6.73617C7.20664 6.26933 7.8398 6.00707 8.5 6.00707C9.1602 6.00707 9.79336 6.26933 10.2602 6.73617C10.727 7.203 10.9893 7.83616 10.9893 8.49636C10.9893 9.15656 10.727 9.78972 10.2602 10.2565C9.79336 10.7234 9.1602 10.9856 8.5 10.9856ZM14.5714 2.42857C14.1926 2.04971 13.4992 2.12743 13.0256 2.601C12.5521 3.07579 12.4756 3.7655 12.8544 4.14557C13.2333 4.52564 13.9254 4.44914 14.4002 3.97436C14.8738 3.50079 14.9503 2.80743 14.5714 2.42857ZM2.601 13.0281C2.12621 13.5016 2.04971 14.1926 2.42857 14.5714C2.80743 14.9503 3.49957 14.875 3.97436 14.4002C4.44914 13.9254 4.52564 13.2333 4.14679 12.8544C3.76793 12.4756 3.07457 12.5533 2.601 13.0281ZM2.42857 2.42857C2.04971 2.80743 2.12621 3.50079 2.59979 3.97436C3.07457 4.44914 3.76671 4.52443 4.14557 4.14557C4.52443 3.76671 4.44793 3.07336 3.97314 2.59979C3.50079 2.12743 2.80743 2.04971 2.42857 2.42857ZM13.0256 14.3978C13.4992 14.8726 14.1914 14.9503 14.5714 14.5714C14.9515 14.1926 14.8738 13.4992 14.399 13.0244C13.9242 12.5496 13.2333 12.4744 12.8532 12.8532C12.4731 13.2321 12.5521 13.9242 13.0256 14.3978ZM8.5 2.42614C9.0355 2.42614 9.47143 1.88336 9.47143 1.21186C9.47021 0.540357 9.0355 0 8.5 0C7.9645 0 7.52736 0.540357 7.52736 1.21186C7.52736 1.88336 7.96207 2.42614 8.5 2.42614ZM8.5 17C9.0355 17 9.47143 16.4572 9.47143 15.7857C9.47143 15.1142 9.03671 14.5739 8.50121 14.5739C7.96571 14.5739 7.52857 15.1142 7.52857 15.7857C7.52736 16.4572 7.96207 17 8.5 17ZM2.42857 8.5C2.42857 7.9645 1.88214 7.52857 1.21064 7.52857C0.539143 7.52857 0 7.9645 0 8.5C0 9.0355 0.539143 9.47143 1.21064 9.47143C1.88214 9.47143 2.42857 9.03671 2.42857 8.5ZM17 8.5C17 7.9645 16.456 7.52857 15.7845 7.52857C15.113 7.52857 14.5714 7.9645 14.5714 8.5C14.5714 9.0355 15.113 9.47143 15.7845 9.47143C16.456 9.47143 17 9.03671 17 8.5Z" fill="white"/>
</svg>
