<svg width="31" height="35" viewBox="0 0 31 35" fill="none" xmlns="http://www.w3.org/2000/svg">
<path d="M29.2618 4.87696C29.2618 4.23024 29.0049 3.61 28.5476 3.1527C28.0903 2.69539 27.47 2.43848 26.8233 2.43848H21.9463V0H19.5078V2.43848H9.75392V0H7.31544V2.43848H2.43848C1.79176 2.43848 1.17152 2.69539 0.714214 3.1527C0.256911 3.61 0 4.23024 0 4.87696V29.2618C0 29.9085 0.256911 30.5287 0.714214 30.986C1.17152 31.4433 1.79176 31.7003 2.43848 31.7003H7.31544V29.2618H2.43848V4.87696H7.31544V7.31544H9.75392V4.87696H19.5078V7.31544H21.9463V4.87696H26.8233V12.1924H29.2618V4.87696Z" fill="#1D345C"/>
<path d="M20.7271 15.8496L23.8349 21.8702L30.481 22.8346L25.604 27.5214L26.8233 34.1382L20.7271 31.0145L14.6309 34.1382L15.8501 27.5214L10.9731 22.8346L17.8009 21.8702L20.7271 15.8496Z" fill="#1D345C"/>
</svg>
