<svg width="10" height="11" viewBox="0 0 10 11" fill="none" xmlns="http://www.w3.org/2000/svg">
<path d="M5 10C7.48528 10 9.5 7.98528 9.5 5.5C9.5 3.01472 7.48528 1 5 1C2.51472 1 0.5 3.01472 0.5 5.5C0.5 7.98528 2.51472 10 5 10Z" stroke="black" stroke-width="0.675"/>
<path d="M4.9999 2.7998V8.1998M6.3499 4.3748C6.3499 3.7538 5.74555 3.2498 4.9999 3.2498C4.25425 3.2498 3.6499 3.7538 3.6499 4.3748C3.6499 4.9958 4.25425 5.4998 4.9999 5.4998C5.74555 5.4998 6.3499 6.0038 6.3499 6.6248C6.3499 7.2458 5.74555 7.7498 4.9999 7.7498C4.25425 7.7498 3.6499 7.2458 3.6499 6.6248" stroke="black" stroke-width="0.675" stroke-linecap="round"/>
</svg>
