<svg width="34" height="36" viewBox="0 0 34 36" fill="none" xmlns="http://www.w3.org/2000/svg">
<path d="M10.0489 29.212C11.8912 29.212 13.3985 30.7194 13.3985 32.5617C13.3985 34.404 11.8912 35.9113 10.0489 35.9113C8.20658 35.9113 6.69925 34.404 6.69925 32.5617C6.69925 30.7194 8.20658 29.212 10.0489 29.212ZM26.797 29.212C28.6393 29.212 30.1466 30.7194 30.1466 32.5617C30.1466 34.404 28.6393 35.9113 26.797 35.9113C24.9547 35.9113 23.4474 34.404 23.4474 32.5617C23.4474 30.7194 24.9547 29.212 26.797 29.212ZM10.3838 23.8526C10.3838 24.0201 10.5513 24.1876 10.7188 24.1876H30.1466V27.5372H10.0489C8.20658 27.5372 6.69925 26.0299 6.69925 24.1876C6.69925 23.5177 6.86673 23.0152 7.03421 22.5128L9.21147 18.4932L3.34962 5.76467H0V2.41505H5.52688L12.7286 17.4884H24.4523L30.984 5.76467L33.8312 7.43948L27.2994 19.1632C26.797 20.1681 25.6246 20.838 24.4523 20.838H11.8912L10.3838 23.5177V23.8526ZM14.0684 0.740234C15.4083 0.740234 16.4132 1.74512 16.4132 3.08497C16.4132 4.42482 15.4083 5.42971 14.0684 5.42971C12.7286 5.42971 11.7237 4.42482 11.7237 3.08497C11.7237 1.74512 12.8961 0.740234 14.0684 0.740234ZM22.7774 14.1387C21.4376 14.1387 20.4327 13.1338 20.4327 11.794C20.4327 10.4541 21.4376 9.44926 22.7774 9.44926C24.1173 9.44926 25.1222 10.4541 25.1222 11.794C25.1222 13.1338 23.9498 14.1387 22.7774 14.1387ZM13.7335 14.1387L11.7237 12.129L23.1124 0.740234L25.1222 2.75001L13.7335 14.1387Z" fill="white"/>
</svg>
