<svg width="24" height="27" viewBox="0 0 24 27" fill="none" xmlns="http://www.w3.org/2000/svg">
<path d="M6.5805 16.6454C7.09383 16.6454 7.58612 16.4415 7.9491 16.0785C8.31207 15.7155 8.51599 15.2232 8.51599 14.7099C8.51599 14.1966 8.31207 13.7043 7.9491 13.3413C7.58612 12.9783 7.09383 12.7744 6.5805 12.7744C6.06718 12.7744 5.57488 12.9783 5.21191 13.3413C4.84894 13.7043 4.64502 14.1966 4.64502 14.7099C4.64502 15.2232 4.84894 15.7155 5.21191 16.0785C5.57488 16.4415 6.06718 16.6454 6.5805 16.6454ZM6.5805 22.0647C7.09383 22.0647 7.58612 21.8608 7.9491 21.4978C8.31207 21.1349 8.51599 20.6426 8.51599 20.1293C8.51599 19.6159 8.31207 19.1236 7.9491 18.7607C7.58612 18.3977 7.09383 18.1938 6.5805 18.1938C6.06718 18.1938 5.57488 18.3977 5.21191 18.7607C4.84894 19.1236 4.64502 19.6159 4.64502 20.1293C4.64502 20.6426 4.84894 21.1349 5.21191 21.4978C5.57488 21.8608 6.06718 22.0647 6.5805 22.0647ZM13.9353 14.7099C13.9353 15.2232 13.7314 15.7155 13.3685 16.0785C13.0055 16.4415 12.5132 16.6454 11.9999 16.6454C11.4865 16.6454 10.9942 16.4415 10.6313 16.0785C10.2683 15.7155 10.0644 15.2232 10.0644 14.7099C10.0644 14.1966 10.2683 13.7043 10.6313 13.3413C10.9942 12.9783 11.4865 12.7744 11.9999 12.7744C12.5132 12.7744 13.0055 12.9783 13.3685 13.3413C13.7314 13.7043 13.9353 14.1966 13.9353 14.7099ZM11.9999 22.0647C12.5132 22.0647 13.0055 21.8608 13.3685 21.4978C13.7314 21.1349 13.9353 20.6426 13.9353 20.1293C13.9353 19.6159 13.7314 19.1236 13.3685 18.7607C13.0055 18.3977 12.5132 18.1938 11.9999 18.1938C11.4865 18.1938 10.9942 18.3977 10.6313 18.7607C10.2683 19.1236 10.0644 19.6159 10.0644 20.1293C10.0644 20.6426 10.2683 21.1349 10.6313 21.4978C10.9942 21.8608 11.4865 22.0647 11.9999 22.0647ZM19.3547 14.7099C19.3547 15.2232 19.1508 15.7155 18.7878 16.0785C18.4248 16.4415 17.9325 16.6454 17.4192 16.6454C16.9059 16.6454 16.4136 16.4415 16.0506 16.0785C15.6876 15.7155 15.4837 15.2232 15.4837 14.7099C15.4837 14.1966 15.6876 13.7043 16.0506 13.3413C16.4136 12.9783 16.9059 12.7744 17.4192 12.7744C17.9325 12.7744 18.4248 12.9783 18.7878 13.3413C19.1508 13.7043 19.3547 14.1966 19.3547 14.7099Z" fill="white"/>
<path fill-rule="evenodd" clip-rule="evenodd" d="M5.80645 0C6.11444 0 6.40982 0.12235 6.62761 0.340134C6.84539 0.557918 6.96774 0.853297 6.96774 1.16129V2.32258H17.0323V1.16129C17.0323 0.853297 17.1546 0.557918 17.3724 0.340134C17.5902 0.12235 17.8856 0 18.1935 0C18.5015 0 18.7969 0.12235 19.0147 0.340134C19.2325 0.557918 19.3548 0.853297 19.3548 1.16129V2.33497C19.5902 2.34116 19.8095 2.35252 20.0129 2.36903C20.6013 2.41548 21.1525 2.52077 21.6743 2.7871C22.4757 3.19536 23.1272 3.84688 23.5355 4.64826C23.8018 5.17006 23.9071 5.72129 23.9535 6.30968C24 6.87484 24 7.56387 24 8.39226V20.2529C24 21.0813 24 21.7703 23.9535 22.3355C23.9071 22.9239 23.8018 23.4751 23.5355 23.9969C23.1276 24.798 22.4767 25.4495 21.6759 25.8581C21.1525 26.1244 20.6013 26.2297 20.0129 26.2761C19.4477 26.3226 18.7587 26.3226 17.9319 26.3226H6.06968C5.24129 26.3226 4.55226 26.3226 3.9871 26.2761C3.39871 26.2297 2.84748 26.1244 2.32568 25.8581C1.52478 25.4506 0.873306 24.8002 0.464516 24C0.198194 23.4766 0.0929035 22.9254 0.0464519 22.337C3.25903e-07 21.7719 0 21.0828 0 20.256V8.39226C0 7.56387 3.25903e-07 6.87484 0.0464519 6.30968C0.0929035 5.72129 0.198194 5.17006 0.464516 4.64826C0.87278 3.84688 1.5243 3.19536 2.32568 2.7871C2.84748 2.52077 3.39871 2.41548 3.9871 2.36903C4.19045 2.35252 4.40981 2.34116 4.64516 2.33497V1.16129C4.64516 1.00879 4.6752 0.857778 4.73356 0.716884C4.79192 0.575989 4.87746 0.44797 4.98529 0.340134C5.09313 0.232298 5.22115 0.146758 5.36204 0.0883979C5.50294 0.0300376 5.65395 0 5.80645 0ZM21.6774 10.8387H2.32258V20.2064C2.32258 21.0921 2.32258 21.6883 2.36129 22.145C2.3969 22.591 2.46194 22.8031 2.53316 22.9424C2.71897 23.3079 3.01471 23.6036 3.38013 23.7894C3.51948 23.8606 3.73161 23.9257 4.176 23.9613C4.63432 23.9985 5.2289 24 6.11613 24H17.8839C18.7695 24 19.3657 24 19.8225 23.9613C20.2684 23.9257 20.4805 23.8606 20.6199 23.7894C20.9846 23.6038 21.2812 23.3072 21.4668 22.9424C21.5381 22.8031 21.6031 22.591 21.6387 22.145C21.6759 21.6883 21.6774 21.0921 21.6774 20.2064V10.8387ZM9.67742 5.80645C9.36943 5.80645 9.07405 5.9288 8.85626 6.14659C8.63848 6.36437 8.51613 6.65975 8.51613 6.96774C8.51613 7.27573 8.63848 7.57111 8.85626 7.7889C9.07405 8.00668 9.36943 8.12903 9.67742 8.12903H14.3226C14.6306 8.12903 14.926 8.00668 15.1437 7.7889C15.3615 7.57111 15.4839 7.27573 15.4839 6.96774C15.4839 6.65975 15.3615 6.36437 15.1437 6.14659C14.926 5.9288 14.6306 5.80645 14.3226 5.80645H9.67742Z" fill="white"/>
</svg>
