<svg width="28" height="32" viewBox="0 0 28 32" fill="none" xmlns="http://www.w3.org/2000/svg">
<path d="M26.88 4.48C26.88 3.88592 26.644 3.31616 26.2239 2.89608C25.8038 2.476 25.2341 2.24 24.64 2.24H20.16V0H17.92V2.24H8.96V0H6.72V2.24H2.24C1.64592 2.24 1.07616 2.476 0.656081 2.89608C0.235999 3.31616 0 3.88592 0 4.48V26.88C0 27.4741 0.235999 28.0438 0.656081 28.4639C1.07616 28.884 1.64592 29.12 2.24 29.12H6.72V26.88H2.24V4.48H6.72V6.72H8.96V4.48H17.92V6.72H20.16V4.48H24.64V11.2H26.88V4.48Z" fill="white"/>
<path d="M19.0401 14.5605L21.895 20.0911L28.0001 20.977L23.5201 25.2823L24.6401 31.3605L19.0401 28.4911L13.4401 31.3605L14.5601 25.2823L10.0801 20.977L16.3521 20.0911L19.0401 14.5605Z" fill="white"/>
</svg>
