<svg width="11" height="8" viewBox="0 0 11 8" fill="none" xmlns="http://www.w3.org/2000/svg">
<path d="M5.5 2.25C5.89782 2.25 6.27936 2.40804 6.56066 2.68934C6.84196 2.97064 7 3.35218 7 3.75C7 4.14783 6.84196 4.52936 6.56066 4.81066C6.27936 5.09197 5.89782 5.25 5.5 5.25C5.10218 5.25 4.72064 5.09197 4.43934 4.81066C4.15804 4.52936 4 4.14783 4 3.75C4 3.35218 4.15804 2.97064 4.43934 2.68934C4.72064 2.40804 5.10218 2.25 5.5 2.25ZM5.5 0C8 0 10.135 1.555 11 3.75C10.135 5.945 8 7.5 5.5 7.5C3 7.5 0.865 5.945 0 3.75C0.865 1.555 3 0 5.5 0ZM1.09 3.75C1.49413 4.57515 2.12165 5.27037 2.90124 5.75663C3.68083 6.24288 4.5812 6.50066 5.5 6.50066C6.4188 6.50066 7.31917 6.24288 8.09876 5.75663C8.87835 5.27037 9.50587 4.57515 9.91 3.75C9.50587 2.92485 8.87835 2.22963 8.09876 1.74337C7.31917 1.25712 6.4188 0.99934 5.5 0.99934C4.5812 0.99934 3.68083 1.25712 2.90124 1.74337C2.12165 2.22963 1.49413 2.92485 1.09 3.75Z" fill="#1D345C"/>
</svg>
