<svg width="28" height="20" viewBox="0 0 28 20" fill="none" xmlns="http://www.w3.org/2000/svg">
<path d="M14 5.72727C15.0126 5.72727 15.9838 6.12954 16.6999 6.84559C17.4159 7.56164 17.8182 8.53281 17.8182 9.54545C17.8182 10.5581 17.4159 11.5293 16.6999 12.2453C15.9838 12.9614 15.0126 13.3636 14 13.3636C12.9874 13.3636 12.0162 12.9614 11.3001 12.2453C10.5841 11.5293 10.1818 10.5581 10.1818 9.54545C10.1818 8.53281 10.5841 7.56164 11.3001 6.84559C12.0162 6.12954 12.9874 5.72727 14 5.72727ZM14 0C20.3636 0 25.7982 3.95818 28 9.54545C25.7982 15.1327 20.3636 19.0909 14 19.0909C7.63636 19.0909 2.20182 15.1327 0 9.54545C2.20182 3.95818 7.63636 0 14 0ZM2.77455 9.54545C3.80323 11.6458 5.40057 13.4155 7.38497 14.6532C9.36938 15.891 11.6612 16.5471 14 16.5471C16.3388 16.5471 18.6306 15.891 20.615 14.6532C22.5994 13.4155 24.1968 11.6458 25.2255 9.54545C24.1968 7.44506 22.5994 5.67541 20.615 4.43768C18.6306 3.19994 16.3388 2.54378 14 2.54378C11.6612 2.54378 9.36938 3.19994 7.38497 4.43768C5.40057 5.67541 3.80323 7.44506 2.77455 9.54545Z" fill="black"/>
</svg>
