<svg width="21" height="23" viewBox="0 0 21 23" fill="none" xmlns="http://www.w3.org/2000/svg">
<path d="M14.3211 20.8405C14.3703 21.2094 14.2473 21.6029 13.9645 21.8611C13.8507 21.9751 13.7156 22.0656 13.5668 22.1273C13.4181 22.189 13.2586 22.2207 13.0975 22.2207C12.9365 22.2207 12.777 22.189 12.6283 22.1273C12.4795 22.0656 12.3444 21.9751 12.2306 21.8611L7.29948 16.93C7.16544 16.7988 7.06351 16.6385 7.00165 16.4614C6.9398 16.2844 6.91968 16.0954 6.94286 15.9093V9.61324L1.05257 2.07513C0.852875 1.81878 0.762769 1.4938 0.80194 1.17121C0.841111 0.848625 1.00638 0.554657 1.26162 0.353543C1.49526 0.181384 1.7535 0.0830078 2.02404 0.0830078H19.2399C19.5105 0.0830078 19.7687 0.181384 20.0024 0.353543C20.2576 0.554657 20.4229 0.848625 20.462 1.17121C20.5012 1.4938 20.4111 1.81878 20.2114 2.07513L14.3211 9.61324V20.8405ZM4.53264 2.54242L9.40228 8.76474V15.5527L11.8617 18.0121V8.75244L16.7313 2.54242H4.53264Z" fill="black"/>
</svg>
