<svg width="19" height="23" viewBox="0 0 19 23" fill="none" xmlns="http://www.w3.org/2000/svg">
<path d="M8.67766 0.755L7.41766 0L7.17766 1.449C6.79566 3.737 5.23266 5.863 3.50866 7.357C0.133661 10.283 -0.605339 13.463 0.439661 16.088C1.43966 18.6 3.97766 20.32 6.55366 20.607L7.14966 20.673C5.67566 19.772 4.72966 17.667 5.05966 16.094C5.38566 14.548 6.49766 13.1 8.63366 11.764L9.71066 11.092L10.1127 12.297C10.3497 13.009 10.7597 13.581 11.1767 14.162C11.3767 14.442 11.5797 14.725 11.7657 15.026C12.4087 16.071 12.5787 17.233 12.1637 18.386C11.7857 19.434 11.1627 20.258 10.3037 20.715L11.2737 20.607C13.6917 20.338 15.4667 19.511 16.6197 18.128C17.7627 16.757 18.1637 14.992 18.1637 13.113C18.1637 11.363 17.4447 9.559 16.5967 8.058C15.6027 6.3 14.3057 4.84 12.8897 3.425C12.6447 3.915 12.6637 4.113 12.1597 4.9C11.5052 3.16196 10.2767 1.69958 8.67766 0.755Z" fill="black"/>
</svg>
