<svg width="29" height="17" viewBox="0 0 29 17" fill="none" xmlns="http://www.w3.org/2000/svg">
<path d="M22.9583 14.5V16.9167H8.45833V14.5C8.45833 14.5 8.45833 9.66667 15.7083 9.66667C22.9583 9.66667 22.9583 14.5 22.9583 14.5ZM19.3333 3.625C19.3333 2.90804 19.1207 2.20719 18.7224 1.61106C18.3241 1.01493 17.7579 0.550306 17.0956 0.275938C16.4332 0.00157066 15.7043 -0.0702164 15.0011 0.069655C14.298 0.209526 13.652 0.554774 13.1451 1.06174C12.6381 1.5687 12.2929 2.21462 12.153 2.9178C12.0131 3.62098 12.0849 4.34985 12.3593 5.01223C12.6336 5.67461 13.0983 6.24076 13.6944 6.63908C14.2905 7.0374 14.9914 7.25 15.7083 7.25C16.6697 7.25 17.5918 6.86808 18.2716 6.18826C18.9514 5.50844 19.3333 4.58641 19.3333 3.625ZM23.2 9.73917C23.8605 10.3485 24.393 11.0834 24.7665 11.9008C25.1399 12.7182 25.3468 13.6018 25.375 14.5V16.9167H29V14.5C29 14.5 29 10.3313 23.2 9.73917ZM21.75 1.37932e-06C21.3849 2.25975e-05 21.0221 0.0571 20.6746 0.169168C21.3815 1.18292 21.7606 2.3891 21.7606 3.625C21.7606 4.86091 21.3815 6.06708 20.6746 7.08083C21.0221 7.1929 21.3849 7.24998 21.75 7.25C22.7114 7.25 23.6334 6.86808 24.3133 6.18826C24.9931 5.50844 25.375 4.58641 25.375 3.625C25.375 2.66359 24.9931 1.74156 24.3133 1.06174C23.6334 0.38192 22.7114 1.37932e-06 21.75 1.37932e-06ZM9.66667 6.04167H6.04167V2.41667H3.625V6.04167H0V8.45833H3.625V12.0833H6.04167V8.45833H9.66667V6.04167Z" fill="black"/>
</svg>
