<svg width="24" height="25" viewBox="0 0 24 25" fill="none" xmlns="http://www.w3.org/2000/svg">
<path d="M12 13.5322C10.9391 13.5322 9.92172 13.9537 9.17157 14.7038C8.42143 15.4539 8 16.4714 8 17.5322C8 18.5931 8.42143 19.6105 9.17157 20.3607C9.92172 21.1108 10.9391 21.5322 12 21.5322C13.0609 21.5322 14.0783 21.1108 14.8284 20.3607C15.5786 19.6105 16 18.5931 16 17.5322C16 16.4714 15.5786 15.4539 14.8284 14.7038C14.0783 13.9537 13.0609 13.5322 12 13.5322ZM10.2857 17.5322C10.2857 17.0776 10.4663 16.6415 10.7878 16.32C11.1093 15.9986 11.5453 15.8179 12 15.8179C12.4547 15.8179 12.8907 15.9986 13.2122 16.32C13.5337 16.6415 13.7143 17.0776 13.7143 17.5322C13.7143 17.9869 13.5337 18.4229 13.2122 18.7444C12.8907 19.0659 12.4547 19.2465 12 19.2465C11.5453 19.2465 11.1093 19.0659 10.7878 18.7444C10.4663 18.4229 10.2857 17.9869 10.2857 17.5322Z" fill="black"/>
<path d="M18.3154 5.09371L14.6823 0L1.32343 10.672L0.582857 10.664V10.6754H0V24.3897H24V10.6754H22.9006L20.7131 4.27657L18.3154 5.09371ZM20.4857 10.6754H9.02514L17.5611 7.76571L19.3006 7.20914L20.4857 10.6754ZM16.0571 5.864L7.24571 8.86743L14.224 3.29257L16.0571 5.864ZM2.28571 20.0114V15.0514C2.7682 14.8811 3.20646 14.605 3.56835 14.2433C3.93024 13.8816 4.20659 13.4435 4.37714 12.9611H19.6229C19.7933 13.4437 20.0695 13.8821 20.4314 14.244C20.7934 14.6059 21.2317 14.8822 21.7143 15.0526V20.0126C21.2317 20.183 20.7934 20.4593 20.4314 20.8212C20.0695 21.1831 19.7933 21.6214 19.6229 22.104H4.37943C4.20821 21.6213 3.93139 21.183 3.56917 20.821C3.20694 20.459 2.76846 20.1824 2.28571 20.0114Z" fill="black"/>
</svg>
