<svg width="16" height="18" viewBox="0 0 16 18" fill="none" xmlns="http://www.w3.org/2000/svg">
<path d="M10.8006 4.2755L12.9511 2.6265L10.2396 2.55L9.33857 0L8.43757 2.55L5.72607 2.6265L7.87657 4.2755L7.10307 6.8765L9.33857 5.338L11.5741 6.8765L10.8006 4.2755Z" fill="black"/>
<path d="M14.532 9.5623L15.926 8.4998L14.175 8.4573L13.5885 6.7998L13.002 8.4573L11.251 8.4998L12.645 9.5623L12.1435 11.2453L13.5885 10.2508L15.0335 11.2453L14.532 9.5623Z" fill="black"/>
<path d="M4.4 4.24983C4.4 9.41783 8.582 13.5998 13.75 13.5998C14.2005 13.5998 14.6425 13.5658 15.076 13.5063C13.7075 15.6058 11.3445 16.9998 8.65 16.9998C4.4255 16.9998 1 13.5743 1 9.34983C1 6.65533 2.394 4.29233 4.4935 2.92383C4.434 3.35733 4.4 3.79933 4.4 4.24983Z" stroke="black" stroke-width="1.36674" stroke-linecap="round" stroke-linejoin="round"/>
</svg>
