<svg width="14" height="14" viewBox="0 0 14 14" fill="none" xmlns="http://www.w3.org/2000/svg">
<path d="M6.51597 13.5374C7.12247 14.1438 8.10997 14.1438 8.71647 13.5374L13.5451 8.70869C14.1516 8.10219 14.1516 7.11469 13.5451 6.50819L7.48792 0.450986C7.19256 0.162745 6.79648 0.000968318 6.38378 0L1.55512 0C0.699806 0 0 0.699806 0 1.55512V6.38378C0 6.79589 0.163288 7.19245 0.458761 7.48014L6.51597 13.5374ZM3.30464 2.33269C3.56242 2.33269 3.80964 2.43509 3.99191 2.61736C4.17419 2.79964 4.27659 3.04686 4.27659 3.30464C4.27659 3.56242 4.17419 3.80964 3.99191 3.99191C3.80964 4.17419 3.56242 4.27659 3.30464 4.27659C3.04686 4.27659 2.79964 4.17419 2.61736 3.99191C2.43509 3.80964 2.33269 3.56242 2.33269 3.30464C2.33269 3.04686 2.43509 2.79964 2.61736 2.61736C2.79964 2.43509 3.04686 2.33269 3.30464 2.33269Z" fill="black"/>
</svg>
