<svg width="33" height="28" viewBox="0 0 33 28" fill="none" xmlns="http://www.w3.org/2000/svg">
<path d="M11.4678 2.93327C11.9487 2.04603 12.6603 1.30514 13.5275 0.788839C14.3946 0.272541 15.3851 0 16.3943 0C17.4035 0 18.394 0.272541 19.2612 0.788839C20.1283 1.30514 20.8399 2.04603 21.3209 2.93327C21.9092 2.30872 22.6734 1.87775 23.5123 1.69752C24.3511 1.51728 25.2249 1.59628 26.0178 1.92406C26.8107 2.25183 27.4853 2.81289 27.952 3.53283C28.4187 4.25277 28.6556 5.09757 28.6312 5.95521C28.6067 6.81285 28.3222 7.64281 27.8153 8.33503C27.3083 9.02724 26.603 9.54901 25.7927 9.83113C24.9824 10.1133 24.1055 10.1424 23.2783 9.91474C22.451 9.68706 21.7126 9.2133 21.1608 8.55629C20.6583 9.3682 19.9566 10.0382 19.1224 10.5028C18.2882 10.9674 17.3492 11.2112 16.3943 11.2109C15.4399 11.211 14.5013 10.9674 13.6674 10.5031C12.8335 10.0388 12.1321 9.36928 11.6295 8.5579C11.0776 9.21469 10.3391 9.68823 9.51188 9.91572C8.6847 10.1432 7.8079 10.1139 6.99775 9.8317C6.1876 9.54949 5.48235 9.02771 4.97552 8.33554C4.46869 7.64336 4.18421 6.81348 4.1598 5.95593C4.13539 5.09838 4.3722 4.25367 4.83884 3.53378C5.30547 2.81389 5.97989 2.25284 6.77268 1.92501C7.56547 1.59717 8.43918 1.51804 9.27796 1.69811C10.1167 1.87818 10.8794 2.30893 11.4678 2.93327ZM12.4829 4.75851C12.648 5.38572 12.6672 6.04244 12.5389 6.67822C12.7734 7.52116 13.2775 8.2641 13.9742 8.79342C14.6709 9.32275 15.5218 9.60932 16.3967 9.60932C17.2717 9.60932 18.1226 9.32275 18.8192 8.79342C19.5159 8.2641 20.0201 7.52116 20.2546 6.67822C20.1261 6.042 20.1447 5.38483 20.309 4.75691C20.1149 3.86339 19.6208 3.06321 18.909 2.48938C18.1971 1.91554 17.3103 1.60262 16.3959 1.60262C15.4816 1.60262 14.5948 1.91554 13.8829 2.48938C13.171 3.06321 12.677 3.86499 12.4829 4.75851ZM10.8401 4.87219C10.614 4.2958 10.1919 3.81763 9.64796 3.52185C9.10403 3.22606 8.4732 3.13161 7.8665 3.25511C7.25979 3.37862 6.71609 3.71217 6.33108 4.19706C5.94608 4.68195 5.74444 5.2871 5.76167 5.90601C5.77889 6.52492 6.01387 7.11792 6.42524 7.58065C6.83662 8.04338 7.39802 8.34617 8.01066 8.43575C8.6233 8.52532 9.24789 8.39593 9.77453 8.07035C10.3012 7.74478 10.6961 7.24387 10.8898 6.6558C10.7781 6.06773 10.7613 5.46556 10.8401 4.87219ZM21.9021 6.6542C22.0956 7.24286 22.4906 7.74437 23.0175 8.07044C23.5444 8.3965 24.1695 8.52623 24.7826 8.43676C25.3958 8.3473 25.9577 8.04438 26.3695 7.58134C26.7813 7.11831 27.0165 6.52484 27.0338 5.90544C27.051 5.28603 26.8492 4.68039 26.4638 4.19515C26.0785 3.70991 25.5343 3.37619 24.927 3.25273C24.3198 3.12927 23.6885 3.224 23.1442 3.52024C22.6 3.81647 22.1777 4.29522 21.9517 4.87219C22.0304 5.46504 22.0136 6.06665 21.9021 6.6542ZM5.10825 10.8859C5.66383 10.7386 6.18898 10.9211 6.55083 11.1837C6.69493 11.2878 6.89346 11.4158 7.13523 11.5327C7.32032 11.6286 7.46069 11.7929 7.52652 11.9907C7.59234 12.1885 7.57841 12.4042 7.4877 12.5919C7.39698 12.7796 7.23663 12.9245 7.04075 12.9958C6.84486 13.0671 6.62889 13.0592 6.43875 12.9737C6.1488 12.8341 5.87179 12.6691 5.61099 12.4806C5.58502 12.462 5.55642 12.4474 5.52613 12.4373L5.51493 12.4357C5.29905 12.4934 5.08494 12.5574 4.87289 12.6279L3.77454 12.9865C3.36495 13.1199 2.99474 13.3525 2.69693 13.6637C2.39912 13.975 2.18298 14.3551 2.06778 14.7701L1.61467 18.0508C1.52501 18.696 1.86604 19.1795 2.35117 19.2948C2.70875 19.3823 3.14264 19.4677 3.65286 19.551C3.75673 19.5678 3.85626 19.6049 3.94579 19.6602C4.03531 19.7155 4.11307 19.7879 4.17462 19.8732C4.23617 19.9585 4.28031 20.0552 4.30452 20.1576C4.32873 20.26 4.33253 20.3661 4.31571 20.47C4.29889 20.5739 4.26177 20.6734 4.20649 20.7629C4.1512 20.8525 4.07882 20.9302 3.99348 20.9918C3.90814 21.0533 3.81151 21.0975 3.70911 21.1217C3.60672 21.1459 3.50055 21.1497 3.39668 21.1329C2.92156 21.0572 2.44943 20.9637 1.98132 20.8527C0.548346 20.5116 -0.152931 19.1395 0.0279924 17.8314L0.49551 14.4595L0.505117 14.4163C0.680455 13.7307 1.02637 13.1007 1.51066 12.5847C1.99496 12.0688 2.6019 11.6838 3.275 11.4655L4.37175 11.1052C4.61725 11.0252 4.86275 10.9521 5.10825 10.8859ZM27.8902 10.8859C27.6429 10.8254 27.3853 10.8207 27.1361 10.8722C26.8868 10.9237 26.6522 11.0301 26.4492 11.1837C26.3051 11.2878 26.1065 11.4158 25.8648 11.5327C25.6797 11.6286 25.5393 11.7929 25.4735 11.9907C25.4077 12.1885 25.4216 12.4042 25.5123 12.5919C25.603 12.7796 25.7634 12.9245 25.9592 12.9958C26.1551 13.0671 26.3711 13.0592 26.5612 12.9737C26.8512 12.8341 27.1282 12.6691 27.389 12.4806C27.415 12.462 27.4436 12.4474 27.4739 12.4373L27.4819 12.4357H27.4851C27.7018 12.4923 27.9158 12.5563 28.1271 12.6279L29.2255 12.9865C30.0676 13.2635 30.7065 13.9376 30.9322 14.7701L31.3853 18.0508C31.475 18.696 31.1356 19.1795 30.6488 19.2948C30.2183 19.3965 29.7841 19.482 29.3471 19.551C29.1374 19.5849 28.9497 19.7009 28.8254 19.8732C28.7011 20.0456 28.6503 20.2602 28.6843 20.47C28.7183 20.6798 28.8342 20.8675 29.0065 20.9918C29.1789 21.1161 29.3935 21.1668 29.6033 21.1329C30.1498 21.0421 30.6216 20.9487 31.0187 20.8527C32.4517 20.5116 33.1529 19.1395 32.972 17.8314L32.5045 14.4595L32.4949 14.4163C32.3195 13.7307 31.9736 13.1007 31.4893 12.5847C31.005 12.0688 30.3981 11.6838 29.725 11.4655L28.6283 11.1052C28.3847 11.0256 28.1376 10.9524 27.8902 10.8859Z" fill="white"/>
<path d="M19.2621 13.4848C19.8369 13.1038 20.639 12.8284 21.4668 13.0605C21.7166 13.131 21.9658 13.2073 22.2145 13.2895L23.75 13.7938C24.6409 14.0831 25.4442 14.593 26.0852 15.276C26.7263 15.959 27.1842 16.793 27.4165 17.7005L27.4277 17.7437L28.0777 22.4445C28.3131 24.1417 27.4052 25.8869 25.5896 26.3192C23.7484 26.7579 20.7671 27.2222 16.3946 27.2222C12.0236 27.2222 9.04075 26.7579 7.1995 26.3192C5.38387 25.8869 4.47605 24.1417 4.71141 22.4445L5.36145 17.7437L5.37266 17.7005C5.60491 16.793 6.06284 15.959 6.70387 15.276C7.34491 14.593 8.14823 14.0831 9.03915 13.7938L10.5762 13.2895C10.8238 13.2073 11.0725 13.131 11.3223 13.0605C12.1501 12.8268 12.9522 13.1038 13.527 13.4848C14.1402 13.8915 15.1489 14.391 16.3946 14.391C17.6402 14.391 18.6505 13.8915 19.2621 13.4848ZM21.0313 14.6008C20.804 14.5367 20.4869 14.5944 20.1475 14.8185C19.3838 15.3261 18.0661 15.9921 16.3946 15.9921C14.723 15.9921 13.4053 15.3261 12.6416 14.8185C12.3038 14.5944 11.9852 14.5367 11.7578 14.6008C11.5283 14.6648 11.301 14.7342 11.0757 14.8089L9.53869 15.3149C8.91149 15.5191 8.34505 15.8763 7.89052 16.3543C7.43599 16.8324 7.10771 17.4161 6.93532 18.0527L6.29649 22.6639C6.15239 23.6998 6.70156 24.5532 7.57095 24.7613C9.27932 25.1696 12.1373 25.6211 16.3946 25.6211C20.6519 25.6211 23.5098 25.1696 25.2182 24.7613C26.0875 24.5532 26.6351 23.6998 26.4926 22.6639L25.8538 18.0527C25.6814 17.4161 25.3531 16.8324 24.8986 16.3543C24.4441 15.8763 23.8776 15.5191 23.2504 15.3149L21.7134 14.8105C21.4882 14.7358 21.2608 14.6664 21.0313 14.6024" fill="white"/>
</svg>
