<svg width="32" height="32" viewBox="0 0 32 32" fill="none" xmlns="http://www.w3.org/2000/svg">
<path d="M2.38867 17.5557H8.11312C8.62518 17.5556 9.12935 17.6819 9.58089 17.9234C10.0324 18.1649 10.4174 18.5141 10.7016 18.9401L11.9647 20.8379C12.2489 21.2638 12.6338 21.6131 13.0853 21.8546C13.5369 22.0961 14.0411 22.2224 14.5531 22.2223H17.4465C17.9585 22.2224 18.4627 22.0961 18.9142 21.8546C19.3658 21.6131 19.7507 21.2638 20.0349 20.8379L21.298 18.9401C21.5822 18.5141 21.9671 18.1649 22.4187 17.9234C22.8702 17.6819 23.3744 17.5556 23.8864 17.5557H29.6109" stroke="white" stroke-width="2.33333" stroke-linecap="round" stroke-linejoin="round"/>
<path d="M5.81111 3.72667L2.448 15.9331C2.151 17.0099 2.00031 18.1217 2 19.2387V26.8889C2 27.714 2.32778 28.5053 2.91122 29.0888C3.49467 29.6722 4.28599 30 5.11111 30H26.8889C27.714 30 28.5053 29.6722 29.0888 29.0888C29.6722 28.5053 30 27.714 30 26.8889V19.2387C29.9997 18.1217 29.849 17.0099 29.552 15.9331L26.1889 3.72667C25.9313 3.20834 25.5343 2.77213 25.0424 2.4671C24.5505 2.16207 23.9832 2.00031 23.4044 2H8.59556C8.01676 2.00031 7.44952 2.16207 6.95763 2.4671C6.46573 2.77213 6.06868 3.20834 5.81111 3.72667Z" stroke="white" stroke-width="2.33333" stroke-linecap="round" stroke-linejoin="round"/>
<path d="M13.3555 10.9324L14.9639 12.7711C15.1117 12.9391 15.3777 12.9267 15.5084 12.7447L18.775 8.22266" stroke="white" stroke-width="2.33333" stroke-linecap="round" stroke-linejoin="round"/>
</svg>
