<svg width="28" height="35" viewBox="0 0 28 35" fill="none" xmlns="http://www.w3.org/2000/svg">
<path fill-rule="evenodd" clip-rule="evenodd" d="M14.9305 33.2966L14.9117 33.2997L14.8005 33.3545L14.7692 33.3608L14.7472 33.3545L14.636 33.2981C14.6193 33.294 14.6068 33.2971 14.5984 33.3075L14.5922 33.3232L14.5655 33.9936L14.5734 34.0249L14.589 34.0453L14.7519 34.1612L14.7754 34.1674L14.7942 34.1612L14.9571 34.0453L14.9759 34.0202L14.9822 33.9936L14.9556 33.3248C14.9514 33.308 14.943 33.2986 14.9305 33.2966ZM15.344 33.1196L15.3221 33.1227L15.0339 33.2684L15.0182 33.284L15.0135 33.3013L15.0417 33.9748L15.0495 33.9936L15.0621 34.0061L15.3769 34.1502C15.3967 34.1554 15.4119 34.1512 15.4223 34.1377L15.4286 34.1157L15.3753 33.154C15.3701 33.1342 15.3597 33.1227 15.344 33.1196ZM14.2241 33.1227C14.2172 33.1185 14.2089 33.1172 14.2011 33.1189C14.1932 33.1207 14.1863 33.1254 14.1818 33.1321L14.1724 33.154L14.1191 34.1157C14.1202 34.1345 14.1291 34.1471 14.1458 34.1533L14.1693 34.1502L14.4841 34.0045L14.4998 33.992L14.5045 33.9748L14.5326 33.3013L14.5279 33.2825L14.5123 33.2668L14.2241 33.1227Z" fill="white"/>
<path fill-rule="evenodd" clip-rule="evenodd" d="M3.03578 10.9642C3.03578 8.05633 4.19093 5.26754 6.24712 3.21135C8.30332 1.15516 11.0921 0 14 0C16.9079 0 19.6967 1.15516 21.7529 3.21135C23.8091 5.26754 24.9642 8.05633 24.9642 10.9642V16.8598L27.8181 22.5675C27.9494 22.8302 28.0115 23.1221 27.9983 23.4156C27.9851 23.709 27.8971 23.9942 27.7426 24.244C27.5882 24.4938 27.3725 24.7001 27.1159 24.8431C26.8594 24.9861 26.5705 25.0611 26.2768 25.0611H20.0679C19.7195 26.4054 18.9346 27.5959 17.8363 28.4458C16.7381 29.2957 15.3887 29.7568 14 29.7568C12.6113 29.7568 11.2619 29.2957 10.1637 28.4458C9.06543 27.5959 8.28049 26.4054 7.93209 25.0611H1.7232C1.42949 25.0611 1.14063 24.9861 0.884076 24.8431C0.627522 24.7001 0.411786 24.4938 0.257358 24.244C0.102931 23.9942 0.0149391 23.709 0.00174063 23.4156C-0.0114578 23.1221 0.0505752 22.8302 0.181948 22.5675L3.03578 16.8598V10.9642ZM11.2871 25.0611C11.5621 25.5373 11.9575 25.9327 12.4338 26.2076C12.91 26.4825 13.4501 26.6273 14 26.6273C14.5499 26.6273 15.09 26.4825 15.5662 26.2076C16.0425 25.9327 16.4379 25.5373 16.7129 25.0611H11.2871ZM14 3.13263C11.9229 3.13263 9.93094 3.95775 8.46223 5.42645C6.99352 6.89516 6.16841 8.88716 6.16841 10.9642V16.8598C6.16838 17.3459 6.05523 17.8253 5.83792 18.2601L4.00533 21.9284H23.9962L22.1636 18.2601C21.9458 17.8255 21.8321 17.346 21.8316 16.8598V10.9642C21.8316 8.88716 21.0065 6.89516 19.5378 5.42645C18.0691 3.95775 16.0771 3.13263 14 3.13263Z" fill="white"/>
</svg>
