<svg width="35" height="29" viewBox="0 0 35 29" fill="none" xmlns="http://www.w3.org/2000/svg">
<path d="M12.1628 3.11104C12.6729 2.17003 13.4276 1.38424 14.3473 0.836647C15.267 0.289058 16.3175 0 17.3879 0C18.4583 0 19.5088 0.289058 20.4285 0.836647C21.3482 1.38424 22.103 2.17003 22.6131 3.11104C23.237 2.44864 24.0476 1.99156 24.9372 1.80039C25.8269 1.60923 26.7537 1.69303 27.5947 2.04067C28.4356 2.38831 29.1511 2.98337 29.6461 3.74694C30.1411 4.51051 30.3923 5.40652 30.3664 6.31613C30.3405 7.22575 30.0387 8.10601 29.501 8.84018C28.9634 9.57434 28.2153 10.1277 27.3559 10.427C26.4965 10.7262 25.5664 10.7571 24.6891 10.5156C23.8117 10.2742 23.0285 9.77169 22.4432 9.07486C21.9103 9.93597 21.1661 10.6466 20.2814 11.1394C19.3966 11.6321 18.4006 11.8906 17.3879 11.8903C16.3757 11.8905 15.3801 11.6321 14.4957 11.1397C13.6113 10.6473 12.8673 9.93711 12.3343 9.07656C11.7489 9.77316 10.9657 10.2754 10.0884 10.5167C9.21104 10.7579 8.28111 10.7269 7.42186 10.4276C6.5626 10.1282 5.81462 9.57485 5.27707 8.84072C4.73952 8.10659 4.4378 7.22642 4.41191 6.3169C4.38602 5.40738 4.63718 4.51147 5.1321 3.74795C5.62702 2.98443 6.34231 2.38938 7.18315 2.04167C8.02398 1.69397 8.95064 1.61004 9.84026 1.80102C10.7299 1.992 11.5388 2.44887 12.1628 3.11104ZM13.2394 5.0469C13.4146 5.71212 13.4349 6.40865 13.2988 7.08296C13.5476 7.97699 14.0822 8.76495 14.8211 9.32636C15.56 9.88776 16.4625 10.1917 17.3905 10.1917C18.3185 10.1917 19.2209 9.88776 19.9598 9.32636C20.6987 8.76495 21.2334 7.97699 21.4821 7.08296C21.3458 6.40818 21.3656 5.71118 21.5398 5.04521C21.334 4.09754 20.81 3.24886 20.055 2.64025C19.3 2.03164 18.3594 1.69975 17.3896 1.69975C16.4199 1.69975 15.4793 2.03164 14.7243 2.64025C13.9693 3.24886 13.4453 4.09924 13.2394 5.0469ZM11.4971 5.16747C11.2573 4.55615 10.8096 4.049 10.2327 3.73529C9.65579 3.42158 8.98673 3.3214 8.34325 3.45239C7.69978 3.58338 7.12312 3.93715 6.71478 4.45142C6.30645 4.9657 6.09259 5.60753 6.11086 6.26395C6.12912 6.92037 6.37834 7.54931 6.81465 8.04008C7.25096 8.53085 7.84639 8.852 8.49615 8.947C9.14592 9.04201 9.80837 8.90478 10.3669 8.55947C10.9255 8.21416 11.3443 7.6829 11.5498 7.05918C11.4313 6.43547 11.4135 5.79681 11.4971 5.16747ZM23.2295 7.05749C23.4347 7.68182 23.8537 8.21372 24.4125 8.55955C24.9714 8.90538 25.6343 9.04297 26.2846 8.94808C26.9349 8.85319 27.5309 8.53192 27.9677 8.04082C28.4044 7.54972 28.6539 6.92029 28.6722 6.26334C28.6905 5.60639 28.4764 4.96405 28.0677 4.4494C27.659 3.93475 27.0818 3.5808 26.4378 3.44986C25.7937 3.31893 25.1242 3.4194 24.5469 3.73358C23.9697 4.04777 23.5218 4.55553 23.2821 5.16747C23.3655 5.79625 23.3478 6.43433 23.2295 7.05749ZM5.41784 11.5456C6.00709 11.3894 6.56407 11.583 6.94785 11.8615C7.10068 11.9719 7.31125 12.1077 7.56767 12.2317C7.76397 12.3334 7.91286 12.5077 7.98267 12.7174C8.05248 12.9272 8.03771 13.156 7.94149 13.355C7.84528 13.5541 7.67522 13.7078 7.46746 13.7834C7.2597 13.859 7.03064 13.8506 6.82898 13.76C6.52145 13.6119 6.22766 13.4369 5.95105 13.237C5.9235 13.2173 5.89317 13.2018 5.86105 13.1911L5.84916 13.1894C5.6202 13.2505 5.39312 13.3185 5.16821 13.3932L4.0033 13.7736C3.56889 13.915 3.17624 14.1618 2.86038 14.4919C2.54452 14.8219 2.31528 15.2251 2.1931 15.6653L1.71253 19.1447C1.61744 19.8291 1.97914 20.3419 2.49367 20.4642C2.87292 20.557 3.33311 20.6476 3.87424 20.7359C3.98441 20.7537 4.08998 20.7931 4.18493 20.8517C4.27988 20.9104 4.36235 20.9871 4.42763 21.0776C4.49291 21.1682 4.53972 21.2706 4.5654 21.3792C4.59108 21.4878 4.59511 21.6004 4.57727 21.7106C4.55943 21.8208 4.52006 21.9263 4.46142 22.0213C4.40278 22.1162 4.32602 22.1987 4.23551 22.264C4.145 22.3293 4.04251 22.3761 3.93391 22.4018C3.8253 22.4274 3.71271 22.4315 3.60254 22.4136C3.09862 22.3334 2.59788 22.2343 2.1014 22.1165C0.581579 21.7548 -0.162199 20.2995 0.029689 18.9121L0.525541 15.3358L0.53573 15.29C0.721695 14.5629 1.08857 13.8947 1.60222 13.3475C2.11587 12.8003 2.75959 12.3919 3.47349 12.1604L4.6367 11.7783C4.89708 11.6934 5.15746 11.6158 5.41784 11.5456ZM29.5805 11.5456C29.3183 11.4814 29.045 11.4765 28.7807 11.5311C28.5163 11.5858 28.2674 11.6986 28.0521 11.8615C27.8993 11.9719 27.6887 12.1077 27.4323 12.2317C27.236 12.3334 27.0871 12.5077 27.0173 12.7174C26.9475 12.9272 26.9623 13.156 27.0585 13.355C27.1547 13.5541 27.3248 13.7078 27.5325 13.7834C27.7403 13.859 27.9694 13.8506 28.171 13.76C28.4785 13.6119 28.7723 13.4369 29.0489 13.237C29.0765 13.2173 29.1068 13.2018 29.1389 13.1911L29.1474 13.1894H29.1508C29.3806 13.2494 29.6076 13.3173 29.8318 13.3932L30.9967 13.7736C31.8899 14.0673 32.5675 14.7823 32.8069 15.6653L33.2875 19.1447C33.3826 19.8291 33.0226 20.3419 32.5063 20.4642C32.0497 20.5721 31.5892 20.6627 31.1258 20.7359C30.9033 20.7719 30.7042 20.8948 30.5724 21.0776C30.4405 21.2604 30.3867 21.4881 30.4227 21.7106C30.4588 21.9331 30.5817 22.1321 30.7645 22.264C30.9473 22.3958 31.175 22.4497 31.3975 22.4136C31.9771 22.3174 32.4775 22.2183 32.8986 22.1165C34.4184 21.7548 35.1622 20.2995 34.9703 18.9121L34.4745 15.3358L34.4643 15.29C34.2783 14.5629 33.9114 13.8947 33.3978 13.3475C32.8841 12.8003 32.2404 12.3919 31.5265 12.1604L30.3633 11.7783C30.105 11.6938 29.8429 11.6162 29.5805 11.5456Z" fill="white"/>
<path d="M20.4294 14.3019C21.039 13.8977 21.8898 13.6057 22.7677 13.8519C23.0326 13.9266 23.297 14.0075 23.5607 14.0947L25.1892 14.6296C26.1342 14.9364 26.9862 15.4772 27.666 16.2016C28.3459 16.926 28.8316 17.8106 29.0779 18.7731L29.0898 18.8189L29.7793 23.8046C30.0289 25.6046 29.0661 27.4556 27.1404 27.9141C25.1875 28.3793 22.0256 28.8718 17.388 28.8718C12.7522 28.8718 9.58856 28.3793 7.63572 27.9141C5.71004 27.4556 4.74721 25.6046 4.99683 23.8046L5.68627 18.8189L5.69816 18.7731C5.94449 17.8106 6.43017 16.926 7.11005 16.2016C7.78993 15.4772 8.64194 14.9364 9.58686 14.6296L11.2171 14.0947C11.4797 14.0075 11.7435 13.9266 12.0084 13.8519C12.8863 13.604 13.7371 13.8977 14.3467 14.3019C14.9971 14.7332 16.0669 15.263 17.388 15.263C18.7092 15.263 19.7807 14.7332 20.4294 14.3019ZM22.3058 15.4855C22.0647 15.4176 21.7285 15.4787 21.3685 15.7164C20.5584 16.2547 19.1609 16.9612 17.388 16.9612C15.6152 16.9612 14.2176 16.2547 13.4076 15.7164C13.0493 15.4787 12.7114 15.4176 12.4703 15.4855C12.2269 15.5534 11.9857 15.627 11.7469 15.7062L10.1167 16.2428C9.45146 16.4594 8.85069 16.8383 8.36862 17.3453C7.88654 17.8523 7.53836 18.4714 7.35553 19.1466L6.67797 24.0372C6.52514 25.1359 7.1076 26.041 8.02968 26.2618C9.84158 26.6948 12.8727 27.1737 17.388 27.1737C21.9034 27.1737 24.9345 26.6948 26.7464 26.2618C27.6685 26.041 28.2493 25.1359 28.0981 24.0372L27.4206 19.1466C27.2377 18.4714 26.8896 17.8523 26.4075 17.3453C25.9254 16.8383 25.3246 16.4594 24.6594 16.2428L23.0292 15.7079C22.7903 15.6287 22.5492 15.5551 22.3058 15.4872" fill="white"/>
</svg>
