<svg width="27" height="27" viewBox="0 0 27 27" fill="none" xmlns="http://www.w3.org/2000/svg">
<path d="M24 0C24.7956 0 25.5587 0.31607 26.1213 0.87868C26.6839 1.44129 27 2.20435 27 3V24C27 24.7956 26.6839 25.5587 26.1213 26.1213C25.5587 26.6839 24.7956 27 24 27H3C2.20435 27 1.44129 26.6839 0.87868 26.1213C0.31607 25.5587 0 24.7956 0 24V3C0 2.20435 0.31607 1.44129 0.87868 0.87868C1.44129 0.31607 2.20435 0 3 0H24ZM24 3H3V24H24V3ZM13.5555 7.0935C13.962 5.7915 15.7155 5.6685 16.3305 6.8175L16.4085 6.9825L19.0155 13.5H21C21.3823 13.5004 21.75 13.6468 22.0281 13.9093C22.3061 14.1717 22.4734 14.5304 22.4958 14.9121C22.5182 15.2938 22.394 15.6696 22.1486 15.9627C21.9032 16.2559 21.5551 16.4443 21.1755 16.4895L21 16.5H18.0105C17.7389 16.5002 17.4722 16.4273 17.2384 16.289C17.0045 16.1507 16.8122 15.9521 16.6815 15.714L16.6035 15.549L15.174 11.973L12.693 19.9125C12.3045 21.1545 10.6605 21.342 9.9825 20.295L9.8925 20.1375L8.0715 16.5H6C5.61768 16.4996 5.24995 16.3532 4.97195 16.0907C4.69394 15.8283 4.52665 15.4696 4.50424 15.0879C4.48184 14.7062 4.60601 14.3304 4.8514 14.0373C5.09678 13.7441 5.44486 13.5557 5.8245 13.5105L6 13.5H8.991C9.501 13.5 9.972 13.755 10.251 14.1735L10.3455 14.3385L10.9275 15.5025L13.5555 7.0935Z" fill="white"/>
</svg>
