<svg width="34" height="28" viewBox="0 0 34 28" fill="none" xmlns="http://www.w3.org/2000/svg">
<path d="M3.09091 13.9091C1.39091 13.9091 0 12.5182 0 10.8182V3.09091C0 1.39091 1.39091 0 3.09091 0H15.4545C17.1545 0 18.5455 1.39091 18.5455 3.09091V10.8182C18.5455 12.5182 17.1545 13.9091 15.4545 13.9091H12.3636V18.5455L7.72727 13.9091H3.09091ZM30.9091 23.1818C32.6091 23.1818 34 21.7909 34 20.0909V12.3636C34 10.6636 32.6091 9.27273 30.9091 9.27273H21.6364V10.8182C21.6364 14.2182 18.8545 17 15.4545 17V20.0909C15.4545 21.7909 16.8455 23.1818 18.5455 23.1818H21.6364V27.8182L26.2727 23.1818H30.9091Z" fill="black"/>
</svg>
