<svg width="27" height="26" viewBox="0 0 27 26" fill="none" xmlns="http://www.w3.org/2000/svg">
<path d="M4.64111 0L3.28339 1.35579L5.30357 3.375L6.65936 2.01921L4.64111 0ZM22.3599 0L20.3397 2.01921L21.6964 3.375L23.7156 1.35675L22.3599 0ZM13.5 0.601714C13.1818 0.604286 12.8604 0.624857 12.5357 0.663429H12.5068C8.59564 1.11182 5.48293 4.27178 4.94196 8.16557C4.50996 11.2995 5.80211 14.1412 7.95536 15.9715C8.83602 16.7233 9.43175 17.7547 9.64286 18.8932V24.679H11.8414C12.177 25.2546 12.7893 25.6432 13.5 25.6432C14.2107 25.6432 14.823 25.2546 15.1586 24.679H17.3571V20.8218H17.4478V19.6763C17.4478 18.2626 18.1826 16.8374 19.3764 15.7294C20.9732 14.1306 22.1786 11.8597 22.1786 9.25136C22.1786 4.48779 18.2578 0.557357 13.5 0.601714ZM13.5 2.53029C17.227 2.47821 20.25 5.52921 20.25 9.25136C20.25 11.2706 19.3146 13.0487 18.0196 14.3428L18.0505 14.3736C16.764 15.5608 15.9319 17.1595 15.6976 18.8942H11.4798C11.2677 17.2414 10.5589 15.6417 9.21954 14.4942C7.51564 13.0477 6.50025 10.8685 6.83968 8.40761C7.26107 5.37011 9.72579 2.92757 12.7459 2.59296C12.9953 2.55838 13.2464 2.53778 13.4981 2.53125L13.5 2.53029ZM0 9.25136V11.1799H2.89286V9.25136H0ZM24.1071 9.25136V11.1799H27V9.25136H24.1071ZM5.30357 17.0563L3.28436 19.0745L4.64111 20.4313L6.65839 18.4121L5.30357 17.0563ZM21.6964 17.0563L20.3406 18.4121L22.3589 20.4313L23.7156 19.0745L21.6964 17.0563ZM11.5714 20.8228H15.4286V22.7514H11.5714V20.8228Z" fill="black"/>
</svg>
