<svg width="29" height="29" viewBox="0 0 29 29" fill="none" xmlns="http://www.w3.org/2000/svg">
<path d="M26.5693 15.1926C26.3333 14.9326 26.2031 14.5983 26.2031 14.2521C26.2031 13.906 26.3333 13.5717 26.5693 13.3116L28.4542 11.2596C28.6619 11.0354 28.7908 10.7533 28.8226 10.4537C28.8543 10.1542 28.7872 9.85265 28.6309 9.59232L25.6858 4.66175C25.5311 4.40171 25.2954 4.19559 25.0125 4.07277C24.7296 3.94995 24.4138 3.91669 24.1102 3.97774L21.3419 4.51925C20.9896 4.58968 20.6229 4.53291 20.311 4.35965C19.999 4.18638 19.7633 3.9086 19.6485 3.57874L18.7503 0.970951C18.6515 0.687912 18.4633 0.442076 18.2122 0.268191C17.9612 0.0943062 17.6601 0.0011668 17.3514 0.00193797H11.4613C11.1402 -0.0142817 10.8224 0.071659 10.5565 0.246634C10.2906 0.421609 10.0912 0.675999 9.98876 0.970951L9.16415 3.57874C9.0493 3.9086 8.81365 4.18638 8.50169 4.35965C8.18972 4.53291 7.82301 4.58968 7.47076 4.51925L4.62879 3.97774C4.34099 3.93838 4.04759 3.98233 3.78555 4.10405C3.52351 4.22578 3.30456 4.41982 3.15627 4.66175L0.211234 9.59232C0.0509654 9.84974 -0.0210967 10.1496 0.00535047 10.4491C0.0317976 10.7485 0.1554 11.0322 0.358486 11.2596L2.22859 13.3116C2.46466 13.5717 2.59485 13.906 2.59485 14.2521C2.59485 14.5983 2.46466 14.9326 2.22859 15.1926L0.358486 17.2447C0.1554 17.472 0.0317976 17.7557 0.00535047 18.0552C-0.0210967 18.3546 0.0509654 18.6545 0.211234 18.9119L3.15627 23.8425C3.31103 24.1025 3.54667 24.3087 3.82959 24.4315C4.11251 24.5543 4.42827 24.5876 4.73187 24.5265L7.50021 23.985C7.85246 23.9146 8.21917 23.9713 8.53114 24.1446C8.8431 24.3179 9.07875 24.5957 9.1936 24.9255L10.0918 27.5333C10.1943 27.8283 10.3937 28.0826 10.6596 28.2576C10.9255 28.4326 11.2433 28.5185 11.5644 28.5023H17.4544C17.7631 28.5031 18.0643 28.41 18.3153 28.2361C18.5663 28.0622 18.7545 27.8163 18.8533 27.5333L19.7516 24.9255C19.8664 24.5957 20.1021 24.3179 20.414 24.1446C20.726 23.9713 21.0927 23.9146 21.445 23.985L24.2133 24.5265C24.5169 24.5876 24.8327 24.5543 25.1156 24.4315C25.3985 24.3087 25.6341 24.1025 25.7889 23.8425L28.7339 18.9119C28.8903 18.6516 28.9574 18.35 28.9256 18.0505C28.8939 17.751 28.7649 17.4689 28.5572 17.2447L26.5693 15.1926ZM24.3753 17.1022L25.5533 18.3847L23.6685 21.5482L21.9309 21.2062C20.8704 20.9964 19.7671 21.1708 18.8306 21.6961C17.8942 22.2215 17.1896 23.0614 16.8507 24.0563L16.2911 25.6523H12.5215L11.9914 24.0278C11.6525 23.0329 10.9479 22.193 10.0114 21.6676C9.07496 21.1423 7.97174 20.9679 6.9112 21.1777L5.17363 21.5197L3.25935 18.3704L4.43737 17.0879C5.16178 16.3041 5.56227 15.2894 5.56227 14.2379C5.56227 13.1863 5.16178 12.1716 4.43737 11.3878L3.25935 10.1053L5.14418 6.97028L6.88175 7.31229C7.94229 7.52208 9.04551 7.34774 9.982 6.82236C10.9185 6.29698 11.623 5.45714 11.9619 4.46225L12.5215 2.85198H16.2911L16.8507 4.4765C17.1896 5.47139 17.8942 6.31123 18.8306 6.83661C19.7671 7.36199 20.8704 7.53633 21.9309 7.32654L23.6685 6.98453L25.5533 10.1481L24.3753 11.4306C23.659 12.2126 23.2635 13.2214 23.2635 14.2664C23.2635 15.3114 23.659 16.3202 24.3753 17.1022ZM14.4063 8.55205C13.2414 8.55205 12.1026 8.88636 11.134 9.51269C10.1654 10.139 9.41041 11.0293 8.9646 12.0708C8.51879 13.1124 8.40215 14.2585 8.62942 15.3642C8.85669 16.4699 9.41767 17.4855 10.2414 18.2827C11.0652 19.0799 12.1147 19.6227 13.2572 19.8427C14.3998 20.0626 15.5841 19.9497 16.6604 19.5183C17.7366 19.0869 18.6565 18.3563 19.3037 17.4189C19.951 16.4815 20.2964 15.3795 20.2964 14.2521C20.2964 12.7404 19.6758 11.2905 18.5712 10.2216C17.4666 9.15259 15.9685 8.55205 14.4063 8.55205ZM14.4063 17.1022C13.8238 17.1022 13.2545 16.935 12.7701 16.6218C12.2858 16.3087 11.9084 15.8636 11.6855 15.3428C11.4626 14.822 11.4042 14.249 11.5179 13.6961C11.6315 13.1433 11.912 12.6354 12.3239 12.2368C12.7357 11.8383 13.2605 11.5668 13.8318 11.4569C14.4031 11.3469 14.9952 11.4033 15.5333 11.619C16.0715 11.8347 16.5314 12.2 16.855 12.6687C17.1786 13.1374 17.3514 13.6884 17.3514 14.2521C17.3514 15.008 17.0411 15.7329 16.4888 16.2674C15.9365 16.8019 15.1874 17.1022 14.4063 17.1022Z" fill="black"/>
</svg>
