<svg width="14" height="16" viewBox="0 0 14 16" fill="none" xmlns="http://www.w3.org/2000/svg">
<path fill-rule="evenodd" clip-rule="evenodd" d="M8.24239 2.66641C8.24239 1.19441 9.44239 9.71722e-06 10.9208 9.71722e-06C11.2718 -0.000936934 11.6196 0.0672923 11.9442 0.200799C12.2689 0.334305 12.564 0.530472 12.8129 0.778091C13.0617 1.02571 13.2592 1.31993 13.3943 1.64393C13.5294 1.96794 13.5993 2.31538 13.6 2.66641C13.6 4.13921 12.4 5.3336 10.9208 5.3336C10.5661 5.33386 10.2149 5.26371 9.88747 5.12721C9.56008 4.9907 9.26305 4.79057 9.01359 4.5384L5.30559 7.0632C5.40867 7.57761 5.35803 8.11098 5.15999 8.5968L9.22559 11.2688C9.70458 10.8785 10.3037 10.6657 10.9216 10.6664C11.2726 10.6656 11.6204 10.7339 11.945 10.8675C12.2696 11.0011 12.5647 11.1974 12.8134 11.445C13.0622 11.6927 13.2596 11.987 13.3946 12.3111C13.5296 12.6351 13.5994 12.9826 13.6 13.3336C13.6 14.8056 12.4 16 10.9208 16C10.5698 16.0008 10.2221 15.9325 9.89759 15.799C9.57303 15.6654 9.27797 15.4692 9.02924 15.2216C8.78052 14.974 8.58301 14.6798 8.448 14.3559C8.31299 14.0319 8.24313 13.6846 8.24239 13.3336C8.24177 12.9597 8.32058 12.5899 8.47359 12.2488L4.44 9.6C3.95137 10.0245 3.32564 10.2578 2.6784 10.2568C2.32737 10.2576 1.97962 10.1893 1.65501 10.0557C1.3304 9.9221 1.0353 9.72585 0.786568 9.47815C0.537835 9.23046 0.340345 8.93618 0.205382 8.61214C0.0704195 8.28809 0.00062958 7.94063 0 7.5896C0.000734537 7.23864 0.070602 6.89127 0.205612 6.56731C0.340621 6.24336 0.538128 5.94918 0.786851 5.70157C1.03557 5.45396 1.33064 5.25778 1.6552 5.12422C1.97975 4.99067 2.32744 4.92236 2.6784 4.9232C3.5296 4.9232 4.2864 5.3176 4.77679 5.932L8.37119 3.48481C8.28545 3.22048 8.24199 2.94429 8.24239 2.66641Z" fill="black"/>
</svg>
