<svg width="26" height="27" viewBox="0 0 26 27" fill="none" xmlns="http://www.w3.org/2000/svg">
<path d="M22.7311 17.1355C25.7209 13.6868 25.9397 8.47821 22.9992 4.76633C20.0588 1.05242 14.9387 0.0703889 10.8968 2.19238" stroke="#B0BEC5" stroke-width="1.01832" stroke-miterlimit="10" stroke-linecap="round"/>
<path d="M20.9079 14.7978C22.6619 12.388 22.6801 9.00637 20.7377 6.55566C18.7952 4.10494 15.5005 3.34381 12.7539 4.50107" stroke="#B0BEC5" stroke-width="1.01832" stroke-miterlimit="10" stroke-linecap="round"/>
<path d="M19.0213 12.2986C19.5525 11.0227 19.3958 9.50475 18.4796 8.34602C17.5614 7.18713 16.1196 6.68583 14.7556 6.91177" stroke="#B0BEC5" stroke-width="1.01832" stroke-miterlimit="10" stroke-linecap="round"/>
<path d="M18.5961 20.2079C18.5961 20.2079 13.8912 18.57 10.0628 21.6669C8.41577 23.0003 7.24693 23.9934 6.96445 24.2347C6.08198 24.9888 3.99352 24.6063 2.10939 22.4012C0.225252 20.1961 0.100215 17.7287 0.982522 16.9767C1.11391 16.8644 2.57784 15.7556 4.22262 14.2688C5.97972 12.6784 5.87554 10.2576 6.09526 8.78554C6.35871 7.01664 6.7409 6.33775 6.7409 6.33775L18.5961 20.2079Z" fill="#8CAFBF"/>
<path d="M3.9282 15.9575C2.67009 17.0988 1.24405 18.3495 1.24405 18.3495C1.24405 18.3495 1.07829 19.4724 2.03044 20.8239C2.03044 20.8239 3.56764 19.5104 4.98731 18.341C4.31498 17.3546 4.03726 16.4421 3.9282 15.9575Z" fill="#8CAFBF"/>
<path d="M18.9386 20.6063C17.1299 22.1518 13.0693 20.164 9.49767 15.9818C5.92399 11.7994 4.59391 7.48048 6.40264 5.935C8.21137 4.38953 11.8713 6.71763 15.445 10.9C19.0167 15.0823 20.7473 19.0608 18.9386 20.6063ZM7.08354 6.7341C5.9602 7.69394 7.00155 11.4488 10.2947 15.3007C13.5879 19.1526 17.1322 20.7689 18.2555 19.8091C19.3788 18.8492 18.3375 15.0944 15.0443 11.2424C11.7511 7.39053 8.20688 5.77426 7.08354 6.7341Z" fill="#B3D0E0"/>
</svg>
