<svg width="26" height="22" viewBox="0 0 26 22" fill="none" xmlns="http://www.w3.org/2000/svg">
<path d="M9.03522 2.31106C9.41415 1.61202 9.97482 1.02829 10.658 0.621509C11.3412 0.214729 12.1216 0 12.9167 0C13.7119 0 14.4923 0.214729 15.1755 0.621509C15.8587 1.02829 16.4193 1.61202 16.7983 2.31106C17.2618 1.81899 17.8639 1.47944 18.5248 1.33744C19.1857 1.19543 19.8742 1.25768 20.4989 1.51593C21.1236 1.77417 21.6551 2.21622 22.0228 2.78344C22.3905 3.35067 22.5771 4.01627 22.5579 4.69199C22.5387 5.3677 22.3145 6.02161 21.9151 6.56699C21.5157 7.11237 20.9599 7.52346 20.3215 7.74574C19.6831 7.96802 18.9922 7.99099 18.3405 7.81161C17.6887 7.63223 17.1069 7.25897 16.6721 6.74132C16.2762 7.38101 15.7234 7.90891 15.0662 8.27496C14.4089 8.641 13.669 8.83303 12.9167 8.83283C12.1648 8.83295 11.4252 8.641 10.7683 8.2752C10.1113 7.9094 9.55859 7.38185 9.16263 6.74258C8.72779 7.26006 8.14593 7.63315 7.49421 7.81238C6.84249 7.99162 6.15168 7.96853 5.51338 7.74619C4.87508 7.52384 4.31943 7.11274 3.92011 6.56739C3.52078 6.02204 3.29665 5.3682 3.27742 4.69255C3.25818 4.01691 3.44476 3.35137 3.81242 2.78419C4.18007 2.21701 4.71143 1.77497 5.33605 1.51667C5.96067 1.25838 6.64905 1.19603 7.30991 1.3379C7.97077 1.47977 8.57165 1.81916 9.03522 2.31106ZM9.83499 3.74913C9.96511 4.24329 9.98022 4.76071 9.87914 5.26163C10.0639 5.92576 10.4611 6.51111 11.01 6.92815C11.5589 7.34519 12.2293 7.57098 12.9186 7.57098C13.608 7.57098 14.2784 7.34519 14.8273 6.92815C15.3762 6.51111 15.7734 5.92576 15.9581 5.26163C15.8569 4.76036 15.8716 4.24259 16.001 3.74787C15.8481 3.04388 15.4588 2.41344 14.898 1.96133C14.3371 1.50922 13.6384 1.26267 12.918 1.26267C12.1976 1.26267 11.4989 1.50922 10.938 1.96133C10.3772 2.41344 9.98791 3.04515 9.83499 3.74913ZM8.54072 3.83869C8.36258 3.38457 8.02997 3.00783 7.60142 2.77479C7.17287 2.54174 6.67586 2.46733 6.19784 2.56463C5.71983 2.66194 5.29146 2.92474 4.98813 3.30677C4.68479 3.68881 4.52593 4.16559 4.53949 4.65322C4.55306 5.14084 4.7382 5.60806 5.06231 5.97263C5.38642 6.3372 5.82875 6.57577 6.31143 6.64635C6.79411 6.71692 7.28622 6.61498 7.70114 6.35846C8.11607 6.10194 8.42722 5.70729 8.57983 5.24397C8.49182 4.78064 8.47862 4.3062 8.54072 3.83869ZM17.2562 5.2427C17.4087 5.70649 17.7199 6.10162 18.135 6.35852C18.5502 6.61543 19.0426 6.71763 19.5257 6.64714C20.0088 6.57666 20.4516 6.338 20.776 5.97318C21.1004 5.60836 21.2857 5.14079 21.2993 4.65277C21.3129 4.16475 21.1539 3.68758 20.8503 3.30527C20.5467 2.92296 20.1179 2.66003 19.6395 2.56276C19.1611 2.46549 18.6637 2.54012 18.2349 2.77352C17.8061 3.00692 17.4733 3.38411 17.2953 3.83869C17.3573 4.30579 17.3441 4.77979 17.2562 5.2427ZM4.02468 8.57675C4.46241 8.4607 4.87617 8.6045 5.16126 8.81139C5.27479 8.89338 5.43121 8.9943 5.6217 9.08638C5.76752 9.16195 5.87812 9.29141 5.92998 9.44725C5.98184 9.60308 5.97087 9.773 5.8994 9.92088C5.82792 10.0688 5.70159 10.1829 5.54726 10.2391C5.39292 10.2953 5.22276 10.289 5.07296 10.2217C4.84451 10.1117 4.62626 9.9817 4.42078 9.83317C4.40032 9.81855 4.37778 9.80707 4.35392 9.79911L4.34509 9.79785C4.17501 9.84326 4.00631 9.89374 3.83925 9.94923L2.97388 10.2318C2.65117 10.3369 2.35949 10.5202 2.12486 10.7654C1.89022 11.0106 1.71992 11.31 1.62916 11.6371L1.27217 14.2218C1.20152 14.7302 1.47022 15.1111 1.85244 15.202C2.13417 15.2709 2.47602 15.3382 2.87801 15.4038C2.95984 15.417 3.03827 15.4463 3.1088 15.4899C3.17934 15.5334 3.2406 15.5904 3.2891 15.6577C3.33759 15.7249 3.37237 15.801 3.39144 15.8817C3.41051 15.9624 3.41351 16.046 3.40026 16.1279C3.387 16.2097 3.35776 16.2881 3.3142 16.3587C3.27064 16.4292 3.21361 16.4905 3.14638 16.539C3.07914 16.5875 3.00301 16.6222 2.92233 16.6413C2.84165 16.6604 2.75801 16.6634 2.67618 16.6501C2.30183 16.5905 1.92986 16.5169 1.56104 16.4294C0.43203 16.1607 -0.120491 15.0796 0.0220547 14.049L0.390402 11.3923L0.397971 11.3583C0.536116 10.8181 0.808653 10.3217 1.19022 9.91525C1.57179 9.50876 2.04998 9.2054 2.5803 9.0334L3.44441 8.74957C3.63783 8.6865 3.83126 8.62889 4.02468 8.57675ZM21.9741 8.57675C21.7793 8.52907 21.5763 8.52539 21.3799 8.56597C21.1835 8.60656 20.9987 8.69039 20.8387 8.81139C20.7252 8.89338 20.5688 8.9943 20.3783 9.08638C20.2325 9.16195 20.1219 9.29141 20.07 9.44725C20.0182 9.60308 20.0291 9.773 20.1006 9.92088C20.1721 10.0688 20.2984 10.1829 20.4527 10.2391C20.6071 10.2953 20.7772 10.289 20.927 10.2217C21.1555 10.1117 21.3737 9.9817 21.5792 9.83317C21.5997 9.81855 21.6222 9.80707 21.6461 9.79911L21.6524 9.79785H21.6549C21.8256 9.84242 21.9942 9.89288 22.1608 9.94923L23.0261 10.2318C23.6896 10.45 24.193 10.9811 24.3708 11.6371L24.7278 14.2218C24.7985 14.7302 24.531 15.1111 24.1476 15.202C23.8084 15.2821 23.4663 15.3494 23.122 15.4038C22.9567 15.4306 22.8088 15.5219 22.7109 15.6577C22.613 15.7935 22.573 15.9626 22.5997 16.1279C22.6265 16.2932 22.7178 16.441 22.8536 16.539C22.9894 16.6369 23.1586 16.6769 23.3238 16.6501C23.7544 16.5786 24.1261 16.5051 24.439 16.4294C25.568 16.1607 26.1205 15.0796 25.9779 14.049L25.6096 11.3923L25.602 11.3583C25.4639 10.8181 25.1913 10.3217 24.8098 9.91525C24.4282 9.50876 23.95 9.2054 23.4197 9.0334L22.5556 8.74957C22.3637 8.68682 22.169 8.62919 21.9741 8.57675Z" fill="black"/>
<path d="M15.1761 10.6247C15.629 10.3244 16.261 10.1075 16.9132 10.2904C17.11 10.3459 17.3063 10.406 17.5023 10.4708L18.712 10.8681C19.414 11.096 20.0469 11.4977 20.5519 12.0359C21.057 12.574 21.4178 13.2311 21.6008 13.9461L21.6096 13.9801L22.1218 17.6838C22.3072 19.021 21.5919 20.396 20.1614 20.7365C18.7108 21.0822 16.3619 21.448 12.9169 21.448C9.47305 21.448 7.12294 21.0822 5.67226 20.7365C4.24176 20.396 3.52651 19.021 3.71194 17.6838L4.2241 13.9801L4.23293 13.9461C4.41592 13.2311 4.77671 12.574 5.28177 12.0359C5.78682 11.4977 6.41974 11.096 7.12168 10.8681L8.33269 10.4708C8.52779 10.406 8.72374 10.3459 8.92053 10.2904C9.57271 10.1062 10.2047 10.3244 10.6576 10.6247C11.1407 10.9451 11.9354 11.3386 12.9169 11.3386C13.8983 11.3386 14.6943 10.9451 15.1761 10.6247ZM16.5701 11.5039C16.3909 11.4534 16.1412 11.4988 15.8737 11.6755C15.272 12.0753 14.2338 12.6001 12.9169 12.6001C11.5999 12.6001 10.5617 12.0753 9.95998 11.6755C9.69381 11.4988 9.44278 11.4534 9.26365 11.5039C9.08284 11.5543 8.90371 11.609 8.72627 11.6679L7.51526 12.0665C7.0211 12.2274 6.57481 12.5089 6.2167 12.8855C5.85859 13.2621 5.59994 13.722 5.46412 14.2236L4.96079 17.8566C4.84726 18.6728 5.27994 19.3452 5.96492 19.5091C7.3109 19.8308 9.56262 20.1866 12.9169 20.1866C16.2711 20.1866 18.5228 19.8308 19.8688 19.5091C20.5538 19.3452 20.9852 18.6728 20.8729 17.8566L20.3696 14.2236C20.2338 13.722 19.9751 13.2621 19.617 12.8855C19.2589 12.5089 18.8126 12.2274 18.3184 12.0665L17.1074 11.6691C16.93 11.6103 16.7509 11.5556 16.5701 11.5052" fill="black"/>
</svg>
