<svg width="24" height="24" viewBox="0 0 24 24" fill="none" xmlns="http://www.w3.org/2000/svg">
<path fill-rule="evenodd" clip-rule="evenodd" d="M19.6682 0.00161077C20.2923 0.00161077 20.7995 0.508851 20.7995 1.1329V3.20187H22.8685C23.0922 3.20182 23.311 3.26814 23.4971 3.39245C23.6832 3.51675 23.8282 3.69345 23.9139 3.9002C23.9995 4.10694 24.0219 4.33445 23.9782 4.55393C23.9346 4.77341 23.8268 4.97501 23.6685 5.13322L21.3323 7.46941C20.9912 7.80976 20.5293 8.00132 20.0474 8.00225H17.6953L12.0468 13.6507C11.8193 13.8627 11.5184 13.9781 11.2075 13.9726C10.8966 13.9671 10.6 13.8412 10.3801 13.6213C10.1602 13.4014 10.0342 13.1048 10.0288 12.7939C10.0233 12.483 10.1387 12.1821 10.3507 11.9546L15.9991 6.30611V3.95393C15.9991 3.47229 16.1911 3.00985 16.532 2.66742L18.8681 0.331237C18.9728 0.225694 19.0975 0.142051 19.2349 0.0851836C19.3722 0.0283162 19.5195 -0.000637491 19.6682 1.06455e-05M2.39803 12.8026C2.39786 11.4978 2.68785 10.2092 3.24699 9.03026C3.80614 7.85129 4.62045 6.8114 5.63097 5.98589C6.64149 5.16038 7.82294 4.5699 9.08976 4.25722C10.3566 3.94453 11.6771 3.91745 12.9557 4.17794C13.266 4.23715 13.5871 4.17162 13.8494 3.99557C14.1117 3.81952 14.294 3.54715 14.3568 3.23755C14.4195 2.92795 14.3577 2.60608 14.1847 2.34178C14.0116 2.07748 13.7414 1.89207 13.4325 1.82576C11.0734 1.34612 8.62251 1.63933 6.4431 2.66191C4.2637 3.68449 2.47174 5.38204 1.33281 7.50297C0.193883 9.6239 -0.23141 12.0553 0.119964 14.4369C0.471339 16.8185 1.58068 19.0236 3.28358 20.7252C4.98648 22.4269 7.19232 23.5346 9.57418 23.8842C11.956 24.2339 14.3872 23.8068 16.5073 22.6663C18.6274 21.5258 20.3236 19.7326 21.3446 17.5525C22.3656 15.3723 22.657 12.9212 22.1756 10.5625C22.1122 10.2505 21.9274 9.97659 21.662 9.8009C21.3966 9.6252 21.0722 9.56214 20.7603 9.62558C20.4484 9.68902 20.1744 9.87378 19.9987 10.1392C19.823 10.4046 19.76 10.729 19.8234 11.0409C19.9397 11.6095 19.9984 12.1967 19.9994 12.8026C19.9994 15.1367 19.0722 17.3752 17.4218 19.0257C15.7713 20.6761 13.5328 21.6033 11.1987 21.6033C8.86464 21.6033 6.62615 20.6761 4.9757 19.0257C3.32524 17.3752 2.39803 15.1367 2.39803 12.8026ZM10.9811 8.80871C11.299 8.79174 11.5971 8.64919 11.8098 8.41243C12.0226 8.17566 12.1326 7.86408 12.1156 7.54621C12.0986 7.22835 11.9561 6.93025 11.7193 6.7175C11.4826 6.50474 11.171 6.39475 10.8531 6.41172C9.62409 6.47796 8.44023 6.89714 7.44338 7.61906C6.44653 8.34097 5.67896 9.33499 5.23265 10.482C4.78634 11.6291 4.68022 12.8804 4.92699 14.0863C5.17376 15.2921 5.76297 16.4011 6.62401 17.2806C7.48506 18.1601 8.58141 18.7727 9.78173 19.0449C10.982 19.3172 12.2354 19.2376 13.3916 18.8157C14.5478 18.3937 15.5579 17.6474 16.3008 16.6661C17.0436 15.6847 17.4878 14.51 17.58 13.2827C17.6036 12.9652 17.5001 12.6514 17.2923 12.4103C17.0845 12.1692 16.7894 12.0205 16.472 11.997C16.1545 11.9734 15.8407 12.0769 15.5996 12.2847C15.3585 12.4925 15.2098 12.7876 15.1863 13.1051C15.1279 13.8717 14.8498 14.6054 14.3853 15.2181C13.9208 15.8308 13.2895 16.2967 12.5671 16.56C11.8446 16.8232 11.0616 16.8727 10.3118 16.7025C9.562 16.5322 8.87712 16.1495 8.33918 15.6001C7.80124 15.0507 7.43303 14.3579 7.27863 13.6047C7.12424 12.8514 7.19019 12.0697 7.4686 11.3529C7.74702 10.6362 8.22609 10.0149 8.84847 9.56339C9.47085 9.11189 10.2102 8.84932 10.9779 8.80711" fill="black"/>
</svg>
