<svg width="29" height="22" viewBox="0 0 29 22" fill="none" xmlns="http://www.w3.org/2000/svg">
<path fill-rule="evenodd" clip-rule="evenodd" d="M15.875 0C16.2118 4.4427e-05 16.5368 0.123689 16.7885 0.347483C17.0402 0.571277 17.201 0.879655 17.2404 1.21412L17.25 1.375C17.2504 1.72546 17.3846 2.06254 17.6252 2.31738C17.8657 2.57222 18.1946 2.72557 18.5444 2.74611C18.8943 2.76665 19.2388 2.65282 19.5075 2.42789C19.7763 2.20295 19.949 1.88388 19.9904 1.53588L20 1.375C20 1.01033 20.1449 0.660591 20.4027 0.402728C20.6606 0.144866 21.0103 0 21.375 0H24.125C25.219 0 26.2682 0.434597 27.0418 1.20818C27.8154 1.98177 28.25 3.03098 28.25 4.125V17.875C28.25 18.969 27.8154 20.0182 27.0418 20.7918C26.2682 21.5654 25.219 22 24.125 22H21.375C21.0382 22 20.7132 21.8763 20.4615 21.6525C20.2098 21.4287 20.049 21.1203 20.0096 20.7859L20 20.625C19.9996 20.2745 19.8654 19.9375 19.6248 19.6826C19.3843 19.4278 19.0554 19.2744 18.7056 19.2539C18.3557 19.2334 18.0112 19.3472 17.7425 19.5721C17.4737 19.7971 17.301 20.1161 17.2596 20.4641L17.25 20.625C17.25 20.9897 17.1051 21.3394 16.8473 21.5973C16.5894 21.8551 16.2397 22 15.875 22H4.875C3.78098 22 2.73177 21.5654 1.95818 20.7918C1.1846 20.0182 0.75 18.969 0.75 17.875V4.125C0.75 3.03098 1.1846 1.98177 1.95818 1.20818C2.73177 0.434597 3.78098 0 4.875 0H15.875ZM18.625 12.375C18.2603 12.375 17.9106 12.5199 17.6527 12.7777C17.3949 13.0356 17.25 13.3853 17.25 13.75V15.125C17.25 15.4897 17.3949 15.8394 17.6527 16.0973C17.9106 16.3551 18.2603 16.5 18.625 16.5C18.9897 16.5 19.3394 16.3551 19.5973 16.0973C19.8551 15.8394 20 15.4897 20 15.125V13.75C20 13.3853 19.8551 13.0356 19.5973 12.7777C19.3394 12.5199 18.9897 12.375 18.625 12.375ZM18.625 5.5C18.2882 5.50004 17.9632 5.62369 17.7115 5.84748C17.4598 6.07128 17.299 6.37966 17.2596 6.71413L17.25 6.875V8.25C17.2504 8.60046 17.3846 8.93754 17.6252 9.19238C17.8657 9.44722 18.1946 9.60057 18.5444 9.62111C18.8943 9.64165 19.2388 9.52782 19.5075 9.30289C19.7763 9.07795 19.949 8.75888 19.9904 8.41087L20 8.25V6.875C20 6.51033 19.8551 6.16059 19.5973 5.90273C19.3394 5.64487 18.9897 5.5 18.625 5.5Z" fill="white"/>
</svg>
