<svg width="20" height="20" viewBox="0 0 20 20" fill="none" xmlns="http://www.w3.org/2000/svg">
<path fill-rule="evenodd" clip-rule="evenodd" d="M18.9989 15C19.2538 15.0003 19.4989 15.0979 19.6843 15.2728C19.8696 15.4478 19.9811 15.687 19.9961 15.9414C20.011 16.1958 19.9282 16.4464 19.7646 16.6418C19.601 16.8373 19.369 16.9629 19.1159 16.993L18.9989 17H0.998892C0.744012 16.9997 0.49886 16.9021 0.313524 16.7272C0.128188 16.5522 0.0166572 16.313 0.00172004 16.0586C-0.0132171 15.8042 0.0695667 15.5536 0.233157 15.3582C0.396747 15.1627 0.628796 15.0371 0.881892 15.007L0.998892 15H18.9989ZM16.9989 1.00268e-07C17.5035 -0.000159579 17.9895 0.190406 18.3594 0.533497C18.7294 0.876588 18.956 1.34684 18.9939 1.85L18.9989 2V12C18.9991 12.5046 18.8085 12.9906 18.4654 13.3605C18.1223 13.7305 17.652 13.9572 17.1489 13.995L16.9989 14H2.99889C2.49432 14.0002 2.00833 13.8096 1.63834 13.4665C1.26836 13.1234 1.04174 12.6532 1.00389 12.15L0.998892 12V2C0.998732 1.49542 1.1893 1.00943 1.53239 0.639452C1.87548 0.269471 2.34574 0.0428434 2.84889 0.00500021L2.99889 1.00268e-07H16.9989ZM16.9989 2H2.99889V12H16.9989V2Z" fill="black"/>
</svg>
