<svg width="22" height="22" viewBox="0 0 22 22" fill="none" xmlns="http://www.w3.org/2000/svg">
<path d="M2.75 21.4156C1.99375 21.4156 1.34658 21.1466 0.808499 20.6085C0.270416 20.0704 0.000916666 19.4228 0 18.6656V15.9156C0 15.526 0.132 15.1997 0.396 14.9366C0.66 14.6735 0.986332 14.5415 1.375 14.5406C1.76367 14.5397 2.09046 14.6717 2.35537 14.9366C2.62029 15.2015 2.75183 15.5279 2.75 15.9156V18.6656H19.25V15.9156C19.25 15.526 19.382 15.1997 19.646 14.9366C19.91 14.6735 20.2363 14.5415 20.625 14.5406C21.0136 14.5397 21.3404 14.6717 21.6054 14.9366C21.8703 15.2015 22.0018 15.5279 22 15.9156V18.6656C22 19.4219 21.7309 20.0695 21.1929 20.6085C20.6548 21.1475 20.0071 21.4165 19.25 21.4156H2.75ZM9.62499 4.70939L7.04687 7.28751C6.77187 7.56251 6.44554 7.69451 6.06787 7.68351C5.6902 7.67251 5.36341 7.52906 5.0875 7.25314C4.83541 6.97814 4.70341 6.65731 4.6915 6.29064C4.67958 5.92397 4.81158 5.60314 5.0875 5.32814L10.0375 0.378145C10.175 0.240645 10.3239 0.143479 10.4844 0.0866457C10.6448 0.0298124 10.8167 0.00093782 11 2.11541e-05C11.1833 -0.000895512 11.3552 0.0279791 11.5156 0.0866457C11.676 0.145312 11.825 0.242479 11.9625 0.378145L16.9125 5.32814C17.1875 5.60314 17.3195 5.92397 17.3085 6.29064C17.2975 6.65731 17.1655 6.97814 16.9125 7.25314C16.6375 7.52814 16.3112 7.6716 15.9335 7.68351C15.5558 7.69543 15.229 7.56343 14.9531 7.28751L12.375 4.70939V14.5406C12.375 14.9302 12.243 15.257 11.979 15.521C11.715 15.785 11.3887 15.9165 11 15.9156C10.6113 15.9147 10.285 15.7827 10.021 15.5196C9.75699 15.2565 9.62499 14.9302 9.62499 14.5406V4.70939Z" fill="white"/>
</svg>
