<svg width="39" height="21" viewBox="0 0 39 21" fill="none" xmlns="http://www.w3.org/2000/svg">
<path d="M35.2625 2.36004e-07C34.6818 0.000187374 34.109 0.135767 33.5898 0.395975C33.0706 0.656183 32.6192 1.03385 32.2714 1.499C31.9237 1.96415 31.6891 2.50396 31.5865 3.07559C31.4838 3.64721 31.5158 4.2349 31.6799 4.792L25.8832 10.5879C25.1187 10.3332 24.2923 10.3332 23.5278 10.5879L19.2305 6.29051C19.3719 5.73871 19.3852 5.16189 19.2695 4.60413C19.1538 4.04637 18.9121 3.52246 18.5629 3.07244C18.2137 2.62242 17.7661 2.25822 17.2546 2.00767C16.743 1.75713 16.1809 1.62688 15.6113 1.62688C15.0417 1.62688 14.4796 1.75713 13.968 2.00767C13.4564 2.25822 13.0089 2.62242 12.6597 3.07244C12.3104 3.52246 12.0687 4.04637 11.953 4.60413C11.8373 5.16189 11.8507 5.73871 11.9921 6.29051L4.80492 13.4728C4.00699 13.2366 3.15309 13.2731 2.3782 13.5765C1.60332 13.8799 0.951636 14.4328 0.526168 15.148C0.100701 15.8632 -0.0742834 16.6997 0.0288724 17.5255C0.132028 18.3512 0.507441 19.119 1.09577 19.7075C1.6841 20.2961 2.45179 20.6717 3.2775 20.7751C4.10321 20.8786 4.93983 20.7039 5.65514 20.2786C6.37044 19.8534 6.92363 19.2019 7.22725 18.4271C7.53088 17.6523 7.56763 16.7984 7.33169 16.0004L14.4279 8.90499C15.1924 9.15983 16.0188 9.15983 16.7833 8.90499L21.0815 13.2032C20.9401 13.755 20.9267 14.3318 21.0424 14.8896C21.1581 15.4473 21.3998 15.9712 21.749 16.4212C22.0983 16.8713 22.5458 17.2355 23.0574 17.486C23.5689 17.7366 24.131 17.8668 24.7006 17.8668C25.2703 17.8668 25.8324 17.7366 26.3439 17.486C26.8555 17.2355 27.303 16.8713 27.6523 16.4212C28.0015 15.9712 28.2432 15.4473 28.3589 14.8896C28.4746 14.3318 28.4612 13.755 28.3198 13.2032L34.2067 7.31957C34.7206 7.47119 35.2611 7.51049 35.7916 7.43481C36.322 7.35913 36.83 7.17023 37.281 6.88093C37.732 6.59164 38.1156 6.20871 38.4055 5.75814C38.6955 5.30757 38.8852 4.79989 38.9617 4.26956C39.0382 3.73922 38.9998 3.19863 38.8489 2.68447C38.6981 2.17031 38.4384 1.69461 38.0876 1.28964C37.7367 0.884671 37.3028 0.55991 36.8154 0.337394C36.328 0.114877 35.7984 -0.000190205 35.2625 2.36004e-07Z" fill="#00FF73"/>
</svg>
